<svg width="144" height="144" viewBox="0 0 144 144" xmlns="http://www.w3.org/2000/svg"><title>bookSessions</title><g fill="none" fill-rule="evenodd"><circle fill="#FFF" cx="72" cy="72" r="72"/><path d="M114 52.41v-1.457H90.051l-2.791-2.776c-4.29-4.263-11.268-4.262-15.556 0l-2.49 2.474-2.163-2.15a6.575 6.575 0 0 0-4.667-1.922H26v1.458h5.133v24.781H26v1.458h6.244l4.677 4.647a5.843 5.843 0 0 0 1.71 4.614 5.922 5.922 0 0 0 4.184 1.72c.558 0 1.114-.078 1.653-.233a5.862 5.862 0 0 0 1.495 5.802 5.922 5.922 0 0 0 4.186 1.72c.557 0 1.114-.079 1.653-.234a5.862 5.862 0 0 0 1.495 5.803 5.922 5.922 0 0 0 4.185 1.72c.557 0 1.114-.079 1.653-.234a5.862 5.862 0 0 0 1.495 5.802 5.922 5.922 0 0 0 4.185 1.72 5.8 5.8 0 0 0 .457-.022l2.691 2.675a5.922 5.922 0 0 0 4.186 1.72 5.92 5.92 0 0 0 4.185-1.72 5.829 5.829 0 0 0 1.733-4.16c0-.245-.02-.487-.05-.727a5.949 5.949 0 0 0 2.93.777 5.92 5.92 0 0 0 4.186-1.72 5.827 5.827 0 0 0 1.734-4.16c0-.246-.02-.488-.05-.728a5.949 5.949 0 0 0 2.93.777 5.92 5.92 0 0 0 4.186-1.72 5.827 5.827 0 0 0 1.734-4.16c0-.246-.02-.488-.05-.727a5.949 5.949 0 0 0 2.93.776 5.92 5.92 0 0 0 4.186-1.72 5.827 5.827 0 0 0 1.734-4.16 5.827 5.827 0 0 0-1.734-4.16l-5.348-5.315H114v-1.458h-3.667v-24.78H114zM39.666 82.507a4.411 4.411 0 0 1 0-6.258l5.867-5.83a4.45 4.45 0 0 1 3.148-1.295c1.14 0 2.28.432 3.148 1.294a4.382 4.382 0 0 1 1.304 3.13 4.382 4.382 0 0 1-1.304 3.128l-5.866 5.83a4.477 4.477 0 0 1-6.297 0zM47 89.795a4.411 4.411 0 0 1 0-6.258l5.866-5.83a4.451 4.451 0 0 1 3.149-1.294c1.14 0 2.28.431 3.148 1.294a4.382 4.382 0 0 1 1.304 3.129 4.381 4.381 0 0 1-1.304 3.129l-5.867 5.83a4.477 4.477 0 0 1-6.296 0zm7.333 7.29a4.411 4.411 0 0 1 0-6.259l5.867-5.83a4.451 4.451 0 0 1 3.148-1.294c1.14 0 2.28.431 3.148 1.293a4.381 4.381 0 0 1 1.304 3.13 4.381 4.381 0 0 1-1.304 3.128l-5.866 5.831a4.477 4.477 0 0 1-6.297 0zm7.333 7.288a4.411 4.411 0 0 1 0-6.258l5.867-5.831a4.45 4.45 0 0 1 3.148-1.294c1.14 0 2.28.432 3.148 1.294a4.382 4.382 0 0 1 1.304 3.129 4.382 4.382 0 0 1-1.303 3.129l-5.867 5.83a4.477 4.477 0 0 1-6.297 0zm13.63 4.373a4.477 4.477 0 0 1-6.296 0l-2.038-2.025A5.884 5.884 0 0 0 69 105.403l4.615-4.587.948.943.733.729a4.381 4.381 0 0 1 1.304 3.129 4.381 4.381 0 0 1-1.304 3.129zM103 88.124a4.381 4.381 0 0 1-1.304 3.13 4.477 4.477 0 0 1-6.296 0l-1.467-1.459-.733-.728-1.467-1.458-1.037 1.03 1.467 1.458.733.73a4.381 4.381 0 0 1 1.304 3.128 4.381 4.381 0 0 1-1.304 3.13 4.477 4.477 0 0 1-6.296 0l-1.467-1.459-.733-.729-1.467-1.457-1.037 1.03 1.467 1.458.733.729a4.381 4.381 0 0 1 1.304 3.129 4.381 4.381 0 0 1-1.304 3.129 4.477 4.477 0 0 1-6.296 0l-1.467-1.458-.733-.729-.948-.942.214-.214a5.827 5.827 0 0 0 1.734-4.16 5.827 5.827 0 0 0-1.734-4.159 5.947 5.947 0 0 0-5.835-1.487 5.874 5.874 0 0 0 .236-1.642 5.827 5.827 0 0 0-1.734-4.16 5.947 5.947 0 0 0-5.835-1.486 5.871 5.871 0 0 0 .235-1.642 5.826 5.826 0 0 0-1.733-4.16 5.946 5.946 0 0 0-5.835-1.487 5.871 5.871 0 0 0 .235-1.642 5.827 5.827 0 0 0-1.734-4.16c-2.306-2.293-6.061-2.293-8.37 0l-5.867 5.831a5.84 5.84 0 0 0-1.325 2.024l-4.238-4.21a.734.734 0 0 0-.466-.204v-24.79h29.784c1.372 0 2.66.53 3.63 1.493l2.164 2.15-11.215 11.147a.725.725 0 0 0 0 1.03 11.067 11.067 0 0 0 7.852 3.233c2.966 0 5.754-1.148 7.851-3.233l3.882-3.857 25.148 24.994a4.381 4.381 0 0 1 1.304 3.13zM77.585 58.97L80 56.57l-1.037-1.03-7.333 7.288a9.604 9.604 0 0 1-6.815 2.805 9.603 9.603 0 0 1-6.278-2.309L72.74 49.208c3.717-3.693 9.765-3.693 13.482 0l3.007 2.99a.74.74 0 0 0 .519.212h7.385v24.781h-1.215L77.585 58.97zm31.282 18.221H98.6v-24.78h10.267v24.78z" fill-rule="nonzero" fill="#2C4F6C"/><path d="M104.467 72.09H103v1.458h1.467zM50.94 113.618c.437.213.878.42 1.323.618l.601-1.33c-.429-.19-.855-.39-1.276-.596l-.648 1.308zm-5.05-2.898c.404.269.812.532 1.225.789l.777-1.237a43.567 43.567 0 0 1-1.184-.762l-.818 1.21zm2.48 1.532c.42.242.847.478 1.277.706l.69-1.287c-.415-.22-.825-.447-1.232-.681l-.735 1.262zm-9.2-7.079c.341.344.688.683 1.04 1.015l1.01-1.057c-.34-.321-.675-.649-1.005-.981l-1.045 1.023zm2.11 1.997c.364.321.733.636 1.107.944l.936-1.121a42.604 42.604 0 0 1-1.07-.913l-.973 1.09zm2.24 1.842c.384.296.774.586 1.168.87l.859-1.182a40.715 40.715 0 0 1-1.13-.84l-.897 1.152zm15.63 7.63c.47.12.942.233 1.418.338l.319-1.423c-.46-.101-.916-.21-1.37-.327l-.367 1.412zm-5.54-1.834c.451.184.905.36 1.363.529l.508-1.368c-.442-.162-.88-.332-1.314-.509l-.557 1.348zm8.39 2.465c.477.089.956.169 1.438.243l.22-1.442c-.465-.07-.928-.148-1.388-.234l-.27 1.433zm-5.65-1.45c.463.153.928.298 1.397.436l.414-1.398a40.056 40.056 0 0 1-1.347-.421l-.464 1.383zM33.47 95.22l-1.28.71c.237.423.48.84.731 1.252l1.256-.753a41.352 41.352 0 0 1-.707-1.209zm-2.395-5.05l-1.365.532c.177.45.362.895.554 1.337l1.346-.578a40.121 40.121 0 0 1-.535-1.291zm-.937-2.63l-1.398.44c.147.46.301.92.463 1.374l1.383-.486a40.339 40.339 0 0 1-.448-1.328zm-.763-2.7l-1.425.344c.115.47.238.938.368 1.402l1.413-.391a38.49 38.49 0 0 1-.356-1.355zm-.57-2.74l-1.445.247c.083.477.173.953.272 1.424l1.436-.296a40.29 40.29 0 0 1-.263-1.375zm-.376-2.77l-1.459.15c.05.483.109.962.175 1.439l1.452-.198a39.99 39.99 0 0 1-.168-1.391zm3.758 13.41l-1.327.622c.208.437.422.87.644 1.298l1.304-.667a44.18 44.18 0 0 1-.621-1.253zm4.356 7.17l-1.173.875c.291.386.59.767.894 1.143l1.143-.913a38.566 38.566 0 0 1-.864-1.105zm1.759 2.18l-1.112.951c.318.366.64.728.969 1.083l1.08-.987c-.318-.344-.63-.694-.937-1.047zm-3.372-4.48l-1.23.794c.265.406.536.805.814 1.2l1.203-.834a41.43 41.43 0 0 1-.787-1.16zm29.95 20.098c.481.056.965.104 1.451.145l.123-1.452c-.47-.04-.937-.086-1.402-.141l-.172 1.448zm33.83-12.509l1.007 1.06c.353-.333.702-.67 1.043-1.014l-1.042-1.025a44.3 44.3 0 0 1-1.008.979zm3.82-4.105l1.141.916c.306-.376.605-.757.898-1.143l-1.171-.877a41.99 41.99 0 0 1-.868 1.104zm1.7-2.243l1.2.838a43.9 43.9 0 0 0 .82-1.202l-1.229-.797c-.257.392-.52.778-.791 1.161zm-3.54 4.363l1.076.99c.33-.354.655-.715.973-1.08l-1.11-.954c-.307.353-.62.701-.939 1.044zm-4.09 3.845l.933 1.125c.375-.308.745-.622 1.109-.941l-.971-1.093c-.352.308-.709.612-1.071.909zm9.17-10.548l1.254.756c.252-.414.498-.831.736-1.253l-1.28-.714c-.23.408-.467.812-.71 1.211zm-11.41 12.255l.857 1.184c.394-.282.783-.57 1.168-.865l-.896-1.155c-.371.285-.748.563-1.129.836zM109.4 88.92l1.382.488c.163-.455.319-.914.467-1.376l-1.398-.442c-.144.447-.294.89-.451 1.33zm-2.25 5.145l1.302.67c.224-.429.44-.862.65-1.3l-1.326-.625c-.201.422-.41.84-.626 1.255zm-39.36 23.881c.483.024.97.04 1.457.048l.025-1.457a44.96 44.96 0 0 1-1.408-.047l-.074 1.456zm40.57-26.42l1.345.58c.194-.443.38-.89.56-1.342l-1.365-.534a41.07 41.07 0 0 1-.54 1.296zm1.89-5.281l1.412.394c.132-.465.255-.933.37-1.403l-1.424-.346c-.112.455-.231.906-.358 1.355zm-28.46 28.632l.413 1.399c.467-.137.931-.28 1.392-.432l-.46-1.384c-.445.146-.893.285-1.345.417zm-2.73.69l.318 1.422a47.91 47.91 0 0 0 1.418-.336l-.365-1.413c-.454.117-.911.225-1.371.327zm-2.77.516l.22 1.441c.482-.072.96-.152 1.437-.24l-.267-1.434c-.46.085-.924.163-1.39.233zm-5.61.463l.025 1.458c.488-.01.973-.024 1.456-.048l-.072-1.456c-.467.023-.937.038-1.409.046zm2.81-.138l.122 1.453c.486-.04.97-.088 1.45-.143l-.17-1.448c-.464.054-.932.1-1.402.138zm10.97-2.413l.507 1.368c.456-.167.908-.342 1.356-.523l-.553-1.35c-.433.175-.87.343-1.31.505zm5.13-2.279l.689 1.288c.429-.228.854-.461 1.273-.7l-.73-1.264a41.86 41.86 0 0 1-1.232.676zm2.43-1.397l.774 1.237a40.98 40.98 0 0 0 1.224-.785l-.815-1.211c-.39.26-.784.512-1.183.759zm-4.96 2.624l.6 1.33c.443-.197.883-.402 1.318-.613l-.644-1.31c-.42.205-.845.402-1.274.593zm.838-77.105a42.471 42.471 0 0 0-1.387-.598l-.561 1.347c.451.185.898.378 1.341.579l.607-1.328zm2.709 1.346c-.443-.24-.89-.47-1.342-.694l-.655 1.305c.436.215.869.44 1.297.67l.7-1.281zm-11.31-4.187a43.782 43.782 0 0 0-1.484-.297l-.263 1.434c.48.087.958.183 1.434.287l.313-1.424zm2.937.743c-.483-.141-.97-.275-1.46-.4l-.364 1.413c.474.12.943.249 1.41.385l.414-1.399zm2.866.95a43.42 43.42 0 0 0-1.427-.5l-.463 1.383c.463.153.923.315 1.379.484l.512-1.366zm10.602 5.722a43.61 43.61 0 0 0-1.231-.872l-.831 1.201c.402.274.798.556 1.19.843l.872-1.172zm-19.378-7.96a42.49 42.49 0 0 0-1.503-.192l-.161 1.449c.486.053.97.115 1.45.185l.214-1.442zm16.89 6.254a40.32 40.32 0 0 0-1.29-.786l-.744 1.257c.42.245.835.498 1.246.758l.788-1.23zm8.074 8.748l1.098-.967a43.096 43.096 0 0 0-1.023-1.107l-1.063 1.004c.335.351.664.707.988 1.07zm-.98-3.15c-.36-.351-.726-.696-1.098-1.034l-.99 1.076c.36.326.712.66 1.06.998l1.028-1.04zm-2.238-2.028a45.517 45.517 0 0 0-1.167-.956l-.913 1.14c.381.302.757.61 1.128.924l.952-1.108zM50.618 38.18l-.681-1.29c-.447.233-.89.473-1.327.72l.726 1.268c.423-.24.85-.472 1.282-.697zm2.634-1.255l-.588-1.335c-.462.201-.92.41-1.374.627l.635 1.314c.438-.21.88-.412 1.327-.606zm-5.169 2.695l-.77-1.24c-.43.263-.854.534-1.273.811l.813 1.213c.406-.268.816-.53 1.23-.783zm-2.435 1.614l-.856-1.184c-.409.292-.813.591-1.212.897l.896 1.154a42.66 42.66 0 0 1 1.172-.867zm10.32-5.381l-.493-1.373c-.476.168-.947.345-1.415.53l.54 1.354c.453-.177.908-.348 1.368-.51zm17.352-3.726a43 43 0 0 0-1.51-.087l-.06 1.456c.488.02.975.048 1.459.085l.11-1.454zm-5.954 1.408l-.09-1.455c-.505.03-1.007.07-1.506.12l.142 1.45a41.61 41.61 0 0 1 1.454-.115zm-8.613 1.449l-.395-1.404c-.486.135-.968.278-1.448.429l.443 1.389c.463-.145.93-.283 1.4-.414zm11.251-1.526h.287l.011-1.457-.298-.001c-.406 0-.81.005-1.214.017l.041 1.457c.39-.011.781-.016 1.173-.016zm-5.536.357l-.193-1.445c-.501.066-1 .14-1.495.223l.243 1.438c.48-.08.961-.152 1.445-.216zm-2.879.483l-.294-1.428c-.495.1-.987.21-1.475.327l.345 1.416c.471-.113.946-.218 1.424-.315z" fill-rule="nonzero" fill="#2C4F6C"/></g></svg>