<svg width="144" height="144" viewBox="0 0 144 144" xmlns="http://www.w3.org/2000/svg"><title>chooseMentor</title><g fill="none" fill-rule="evenodd"><circle fill="#FFF" cx="72" cy="72" r="72"/><path d="M105.05 63.406h-1.338a3.27 3.27 0 0 0 .678-1.983c0-.745-.257-1.425-.674-1.979a11.22 11.22 0 0 0 5.962-9.92c0-6.196-5.041-11.236-11.237-11.236-4.731 0-8.78 2.942-10.435 7.09a16.392 16.392 0 0 0-4.558-7.77c-3.272-3.145-7.59-4.773-12.126-4.595-7.316.292-13.523 5.509-15.32 12.39-1.648-4.161-5.703-7.115-10.443-7.115-6.196 0-11.237 5.04-11.237 11.237a11.22 11.22 0 0 0 5.962 9.92 3.276 3.276 0 0 0-.674 1.978c0 .747.259 1.43.678 1.983H38.95a5.956 5.956 0 0 0-5.95 5.95v9.254a.66.66 0 0 0 .661.66h4.627v16.526a.66.66 0 0 0 .661.661h13.22a.66.66 0 0 0 .662-.66V79.27h4.627a.66.66 0 0 0 .66-.661v-9.254a5.956 5.956 0 0 0-5.949-5.95H50.83c.42-.553.678-1.236.678-1.983 0-.745-.257-1.425-.674-1.979a11.221 11.221 0 0 0 5.177-5.791 16.496 16.496 0 0 0 7.472 10.017c1.43.86 2.343 2.242 2.529 3.78a3.31 3.31 0 0 0-2.605 3.228c0 1.084.533 2.04 1.342 2.644a3.294 3.294 0 0 0-1.342 2.644c0 .804.3 1.532.78 2.106a5.958 5.958 0 0 0-4.746 5.826v9.254a.66.66 0 0 0 .66.661h4.628v16.526a.66.66 0 0 0 .66.661H78.61a.66.66 0 0 0 .661-.661V93.813h4.627a.66.66 0 0 0 .661-.66v-9.255a5.958 5.958 0 0 0-4.745-5.826 3.27 3.27 0 0 0 .78-2.106 3.294 3.294 0 0 0-1.343-2.644 3.293 3.293 0 0 0 1.342-2.644 3.309 3.309 0 0 0-2.606-3.227c.183-1.534 1.093-2.918 2.52-3.776 3.795-2.281 6.431-5.861 7.494-9.996a11.217 11.217 0 0 0 5.165 5.765 3.276 3.276 0 0 0-.674 1.98c0 .746.258 1.428.678 1.982h-1.34a5.956 5.956 0 0 0-5.949 5.95v9.254a.66.66 0 0 0 .661.66h4.627v16.526a.66.66 0 0 0 .662.661h13.22a.66.66 0 0 0 .66-.66V79.27h4.628a.66.66 0 0 0 .661-.661v-9.254a5.956 5.956 0 0 0-5.95-5.95zm-48.253 5.95v8.593H52.83v-8.593h-1.323v25.78H46.22V79.931h-1.322v15.203H39.61v-25.78h-1.322v8.594h-3.966v-8.593a4.633 4.633 0 0 1 4.627-4.628H52.17a4.633 4.633 0 0 1 4.628 4.628zm-13.882-5.95a1.985 1.985 0 0 1-1.983-1.983c0-.674.34-1.268.855-1.626.04-.028.083-.05.124-.074.059-.035.118-.07.181-.098.044-.02.089-.037.134-.054.07-.026.142-.049.215-.067.04-.01.08-.02.12-.027a1.88 1.88 0 0 1 .354-.037h5.288c.122 0 .24.015.355.036.04.007.08.018.12.028.073.018.145.04.215.067.045.017.09.033.134.053.063.03.122.063.181.098.042.025.084.046.124.074a1.981 1.981 0 0 1-1.129 3.61h-5.288zm6.842-4.897c-.06-.032-.124-.058-.187-.086-.043-.02-.084-.041-.127-.059a3.249 3.249 0 0 0-.524-.162c-.04-.01-.082-.016-.123-.024a3.278 3.278 0 0 0-.593-.06H46.22v-6.997l3.773-3.773-.935-.934-3.499 3.498-3.498-3.498-.935.934 3.772 3.773v6.997h-1.983c-.2 0-.398.025-.592.06-.042.008-.083.014-.124.024-.178.04-.353.093-.523.162-.044.018-.085.04-.128.059-.062.028-.126.053-.187.086a9.905 9.905 0 0 1-5.717-8.984c0-5.467 4.448-9.915 9.915-9.915 5.468 0 9.916 4.448 9.916 9.915a9.905 9.905 0 0 1-5.718 8.984zm33.48 25.39v8.592h-3.966v-8.593H77.95v25.78h-5.288V94.474H71.34v15.204h-5.288v-25.78H64.73v8.593h-3.966v-8.593a4.633 4.633 0 0 1 4.627-4.627h2.27l3.773 6.29a.66.66 0 0 0 1.133 0l3.774-6.29h2.27a4.633 4.633 0 0 1 4.627 4.627zM69.201 79.27H74.8L72 83.936l-2.799-4.665zm10.07-3.305c0 1.093-.89 1.983-1.983 1.983H66.712a1.985 1.985 0 0 1-1.983-1.983c0-1.093.89-1.983 1.983-1.983h10.576c1.094 0 1.983.89 1.983 1.983zm0-5.288c0 1.093-.89 1.983-1.983 1.983H66.712a1.985 1.985 0 0 1-1.983-1.983c0-1.094.89-1.983 1.983-1.983h10.576c1.094 0 1.983.89 1.983 1.983zM68.695 48.864h-1.983a1.985 1.985 0 0 1-1.983-1.983c0-1.093.89-1.983 1.983-1.983s1.983.89 1.983 1.983v1.983zm1.322 1.322h3.966v17.187h-3.966V50.186zm9.809 12.356c-1.804 1.085-2.954 2.853-3.164 4.83h-1.357V50.187h1.983a3.309 3.309 0 0 0 3.305-3.305 3.309 3.309 0 0 0-3.305-3.305 3.309 3.309 0 0 0-3.305 3.305v1.983h-3.966V46.88a3.309 3.309 0 0 0-3.305-3.305 3.309 3.309 0 0 0-3.305 3.305 3.309 3.309 0 0 0 3.305 3.305h1.983v17.187h-1.356c-.209-1.97-1.363-3.745-3.175-4.835a15.186 15.186 0 0 1-7.344-13.866c.422-7.73 6.816-14.029 14.555-14.338 4.188-.167 8.147 1.335 11.158 4.227a15.075 15.075 0 0 1 4.67 10.964c0 5.373-2.757 10.24-7.377 13.017zm-4.52-13.678V46.88c0-1.093.889-1.983 1.982-1.983 1.094 0 1.983.89 1.983 1.983s-.89 1.983-1.983 1.983h-1.983zm13.22.66c0-5.466 4.447-9.914 9.915-9.914 5.467 0 9.915 4.448 9.915 9.915a9.905 9.905 0 0 1-5.717 8.984c-.061-.032-.124-.058-.187-.086-.043-.02-.084-.041-.128-.059a3.247 3.247 0 0 0-.523-.162c-.041-.01-.082-.016-.124-.024a3.277 3.277 0 0 0-.592-.06h-1.983v-6.997l3.772-3.773-.935-.934-3.498 3.498-3.5-3.498-.934.934 3.773 3.773v6.997h-1.983c-.2 0-.398.025-.593.06-.041.008-.082.014-.123.024a3.32 3.32 0 0 0-.524.162c-.043.018-.084.04-.127.059-.063.028-.127.053-.187.086a9.905 9.905 0 0 1-5.718-8.984zm5.288 11.9c0-.675.339-1.27.854-1.627.04-.028.083-.05.124-.074.06-.035.119-.07.182-.098a1.61 1.61 0 0 1 .134-.054c.07-.026.141-.049.215-.067.04-.01.079-.02.12-.027.114-.022.232-.037.354-.037h5.288c.121 0 .239.015.355.036.04.007.08.018.12.028.073.018.144.04.214.067.045.017.09.033.134.053.063.03.123.063.181.098.042.025.084.046.125.074a1.981 1.981 0 0 1-1.13 3.61h-5.287a1.985 1.985 0 0 1-1.983-1.983zm15.864 16.525h-3.966v-8.593h-1.322v25.78h-5.288V79.931H97.78v15.203h-5.288v-25.78h-1.323v8.594h-3.966v-8.593a4.633 4.633 0 0 1 4.627-4.628h13.221a4.633 4.633 0 0 1 4.627 4.628v8.593z" fill="#2C4F6C" fill-rule="nonzero"/></g></svg>