<svg width="230" height="260" viewBox="0 0 230 260" xmlns="http://www.w3.org/2000/svg"><title>chair_F</title><path d="M46.628 238.314C32.068 240.037 21 248.644 21 259h62c0-11.598-13.88-21-31-21h-.28L9.434 80.182l-4.83 1.294 42.025 156.84zm110.94-114.007c26.802 0 43.854-17.307 56.417-17.307 12.564 0 2.094 26.307-1.396 38.255-3.49 11.948-3.638 15.22-3.638 15.22s-10.68 10.375-16.463 20.059c-5.783 9.683-5.783 15.466-5.783 15.466h-55.5s0-6.035-4.008-15.466c-4.008-9.432-19.167-22.182-19.167-22.182s-.712-.562-3.978-13.097C100.775 132.672 86.952 107 101.61 107c14.657 0 29.157 17.307 55.958 17.307zm41.716 56.814C205.438 171.545 213.28 161 224.167 161c10.887 0 4.737 21.976-3.837 39.027C211.755 217.077 203.006 228 159.2 228c-41.92 0-52.753-10.657-62.131-27.973C91.217 189.222 85.829 161 94.67 161c8.843 0 16.6 6.258 24.102 16.648 7.503 10.39 7.503 24.374 7.503 24.374h65.466s1.389-11.325 7.542-20.9zM180.674 228h8.09c.559 0 1.154.426 1.336.952l9.973 28.792c.183.53-.118.976-.67 1.006l-8.633.459c-.543.029-1.138-.374-1.308-.9l-9.486-29.356c-.172-.535.143-.953.698-.953zm-51.48 0h8.17c.544 0 .855.423.684.945l-9.537 29.11c-.17.519-.756.945-1.306.945h-8.596c-.541 0-.852-.423-.674-.945l9.943-29.11c.181-.53.767-.945 1.315-.945zM8 78a8 8 0 1 1 0-16 8 8 0 0 1 0 16zm7.717-15.665l90.066-52 2.5 4.33-90.066 52-2.5-4.33zM161 52H88c0-19.882 16.342-36 36.5-36S161 32.118 161 52zM119.498 0h4.004c.283 0 .498.222.498.496v15.008a.5.5 0 0 1-.498.496h-4.004a.492.492 0 0 1-.498-.496V.496a.5.5 0 0 1 .498-.496z" fill="#2BBBAD" fill-rule="evenodd"/></svg>