<svg width="92" height="119" viewBox="0 0 92 119" xmlns="http://www.w3.org/2000/svg"><title>Chat</title><g stroke="#2C4F6C" stroke-width="3" fill="none" fill-rule="evenodd"><path d="M74.482 50.06h.427c8.285 0 15.001-6.718 15.001-14.99V16.73c0-8.279-6.717-14.99-15-14.99H44.303c-8.284 0-15 6.718-15 14.99v18.34c0 8.279 6.717 14.99 15 14.99h18.63l5.775 6.543 5.773-6.542zm-44.599 58.427h17.723c8.285 0 15-6.72 15-14.992V75.156c0-8.28-6.717-14.991-15-14.991H17c-8.284 0-15 6.719-15 14.991v18.34c0 8.242 6.658 14.93 14.89 14.99l6.497 7.362 6.496-7.361z"/><path d="M35.97 75C33.225 75 31 77.17 31 79.846c0 8 9.94 13.146 9.94 13.146s9.939-5.075 9.939-13.146c0-2.676-2.225-4.846-4.97-4.846-2.464 0-5.038 2.405-5.038 2.405S38.433 75 35.97 75z"/></g></svg>