<svg width="120" height="118" viewBox="0 0 120 118" xmlns="http://www.w3.org/2000/svg"><title>Free-56-25-web-seo-internet-user-rating</title><path d="M16.678 88.64l4.447 9.126 10.232 1.325-7.483 6.964L25.75 116l-9.072-4.822L7.607 116l1.876-9.945L2 99.091l10.231-1.325zm43.29 0l4.447 9.126 10.232 1.325-7.483 6.964L69.04 116l-9.072-4.822L50.897 116l1.876-9.945-7.483-6.964 10.231-1.325zm43.29 0l4.447 9.126 10.232 1.325-7.483 6.964L112.33 116l-9.072-4.822L94.187 116l1.876-9.945-7.483-6.964 10.231-1.325zM86.221 74.628c9.304-7.527 15.229-18.884 15.229-31.588C101.45 20.374 82.592 2 59.33 2 36.068 2 17.21 20.374 17.21 43.04c0 12.703 5.924 24.059 15.226 31.587 7.237-5.928 17.537-8.017 18.314-9.865 1.18-2.809 1.18-4.117 1.18-7.484 0-3.366-4.407-9.156-4.407-9.156s-2.817-1.223-3.609-4.359c-.532-2.108.645-4.51 1.27-4.893-1.67-5.07-5.006-22.55 14.08-23.184.083-.002.167-.004.251.008 18.967.63 15.632 18.11 13.961 23.18.625.382 1.802 2.785 1.27 4.893-.792 3.135-3.61 4.359-3.61 4.359s-4.407 5.79-4.407 9.156c0 3.367 0 4.675 1.181 7.484.777 1.847 11.074 3.936 18.311 9.862z" stroke-width="3.5" stroke="#2C4F6C" fill="none" stroke-linecap="round" stroke-linejoin="round"/></svg>