<svg width="144" height="144" viewBox="0 0 144 144" xmlns="http://www.w3.org/2000/svg"><title>2guyTalkingnew</title><g fill="none" fill-rule="evenodd"><circle fill="#FFF" cx="72" cy="72" r="72"/><path d="M94.843 58.226c-1.383 0-3.337-.347-4.623-.52-5.29 6.035-14.632 4.472-14.632 4.472 5.862-2.519 6.91-6.991 5.862-7.556-4.623-2.475-6.768-5.254-6.768-9.465 0-7.425 8.865-13.157 20.16-13.157 11.344 0 18.255 5.732 18.255 13.157 0 7.468-6.911 13.07-18.254 13.07zm-11.218 49.403s-.28-12.176-.838-12.741c-.502-.617-.558-3.083-6.53-6.473.613-1.696.055-2.158.167-2.107.167.103-.056-1.13-.056-1.13s-4.13-1.644-4.075-4.675c.056-3.083 0-3.34 0-3.34s.224-5.65 5.582-5.65h5.303c4.856 0 5.303 5.65 5.303 5.65v3.75s-1.452 2.467-4.466 4.008c0 0-.223 1.233-.056 1.13.168-.051.168 5.498 5.415 6.217 5.247.719 6.754 3.699 7.759 4.572 1.004.874 2.902 10.892 2.902 10.892l-16.41-.103z" stroke="#2C4F6C" stroke-width="3.5" fill="#BCD1E3"/><path d="M38.72 70.57c-.465.293-1.34 2.13-.945 3.74.59 2.396 2.686 3.331 2.686 3.331s3.28 4.424 3.28 6.997c0 2.573 0 3.572-.88 5.718-.878 2.147-18.129 4.72-18.861 17.373h25.108l25.383.003c-.732-12.654-17.983-15.227-18.861-17.373-.88-2.146-.88-3.146-.88-5.718 0-2.573 3.28-6.997 3.28-6.997s2.096-.935 2.686-3.33c.396-1.612-.48-3.448-.945-3.74 1.243-3.875 3.725-17.232-10.388-17.713a1.07 1.07 0 0 0-.187-.006c-14.2.484-11.719 13.841-10.476 17.716z" stroke="#2C4F6C" stroke-width="3.5" fill="#BCD1E3" stroke-linecap="round" stroke-linejoin="round"/></g></svg>