<svg width="84" height="91" viewBox="0 0 84 91" xmlns="http://www.w3.org/2000/svg"><title>Fill 89</title><path d="M78.4 50.944h-14a2.801 2.801 0 0 0-2.8 2.8v11.2a2.8 2.8 0 0 0 2.8 2.8h14v14a2.8 2.8 0 0 1-2.8 2.8H8.4a2.8 2.8 0 0 1-2.8-2.8v-53.2h70a2.8 2.8 0 0 1 2.8 2.8v19.6zm0 8.4v2.8H67.2v-5.6h11.2v2.8zm-5.6-53.2v16.8H18.2l54.6-16.8zm5.6 16.8v-19.6c0-1.548-.66-2.405-2.1-2.973-1.109-.44-2.187-.177-3.5.173L0 22.944v61.6c0 3.092 2.509 5.6 5.6 5.6h72.8c3.091 0 5.6-2.508 5.6-5.6v-56c0-3.09-2.509-5.6-5.6-5.6z" fill="#2C4F6C" fill-rule="evenodd"/></svg>