<svg version="1" xmlns="http://www.w3.org/2000/svg" width="533.333" height="533.333" viewBox="0 0 400.000000 400.000000"><path d="M184.8.5c-.1.1-3.5.5-7.3.9-35.8 3.3-76.9 20.9-106 45.6C32 80.4 7.8 125.4 1.3 177.5-.2 189.1.6 224.1 2.5 231c.2.8.6 3.3 1 5.5C7.2 261.7 22.1 296 39.3 319c18.9 25.3 42.9 45.5 70.8 59.4 9.3 4.7 27.3 12.1 31.9 13.1.8.2 5 1.3 9.4 2.4 4.3 1.1 9.9 2.4 12.5 2.7 2.5.3 4.8.7 5.1.9 3.7 2.2 47.5 2.6 59 .6 4.1-.7 8.4-1.5 9.5-1.7 16.1-2.9 46-13.2 53.8-18.6 1.5-1.1 2.7-1.7 2.7-1.4 0 .7 18-10.5 24.5-15.2 29.2-21.2 54.8-54.7 68-89.2 3.3-8.4 7.9-23.6 8.9-29.5.3-1.7.8-4.1 1.1-5.5 2.3-11.8 3-19.9 2.9-37.5 0-15.1-.7-26.1-1.9-30.5-.2-.8-.6-3.1-.9-5-2.9-19.5-13.4-47.7-24.8-66-1.5-2.5-3.5-5.8-4.4-7.4-5-8.9-22.8-29.6-34-39.4-7.3-6.4-19.6-15.9-26.2-20.1-11.5-7.4-41.1-21-49.2-22.6-.8-.2-4-1-7-1.9-4.8-1.3-9.6-2.3-26-5.1-3.7-.7-39.6-1.6-40.2-1z"/></svg>