<svg version="1" xmlns="http://www.w3.org/2000/svg" width="666.667" height="666.667" viewBox="0 0 500.000000 500.000000"><path d="M0 250v250h500V0H0v250zm156.7-9.8c2.9 2.7 3.1 8 .5 10.5-1.8 1.7-1.8 1.9.6 6l2.4 4.3h-2.5c-1.7 0-3.2-1.1-5.1-4.1-3.4-5.1-6-5-6.4.4-.3 3.2-.7 3.7-2.8 3.7H141v-23h6.7c5.5 0 7.1.4 9 2.2zm37.3-.2c0 1.8-.7 2-5.5 2-5.2 0-5.5.1-5.5 2.4s.5 2.5 4.7 2.8c3.6.2 4.9.7 5.1 2 .3 1.5-.4 1.8-4.7 1.8-5 0-5.1.1-5.1 3v3h6c5.3 0 6 .2 6 2s-.7 2-8.5 2H178v-23h8c7.3 0 8 .2 8 2zm51 5.3l5.5 7.2.3-7.3c.3-6.9.4-7.2 2.7-7.2h2.5v11.5c0 11.3 0 11.5-2.3 11.5-1.6 0-3.8-2-7.7-7l-5.5-7.1-.3 7.1c-.3 6.7-.4 7-2.7 7H235v-11.5c0-11.3 0-11.5 2.3-11.4 1.5 0 3.8 2.1 7.7 7.2zm47.6-3.9c2.9 2.9 3.4 4.1 3.4 8 0 3.6-.6 5.2-3.1 8.1-2.7 3-3.7 3.5-7.4 3.5-10.7 0-15.3-12.3-7.5-20.1 4.2-4.3 10-4.1 14.6.5zm27.6 5.1c1.6 4.4 3.1 8.2 3.3 8.4.3.2 1-.9 1.6-2.5 1.1-2.8.5-7.1-1.6-12.7-.5-1.3-.2-1.7 1.3-1.7s2.4 1 3.3 3.7l1.2 3.7 1.4-3.7c1.1-2.5 2.1-3.7 3.5-3.7 1.5 0 1.8.4 1.3 1.7-2.1 5.6-2.7 9.9-1.6 12.7.6 1.6 1.3 2.7 1.6 2.5.2-.2 1.7-4 3.3-8.4 2.5-7 3.2-8 5.4-8.3l2.7-.3-4.7 11.5c-3.9 9.8-4.9 11.6-6.7 11.6-1.7 0-2.7-1.1-4.1-4.8l-1.8-4.7-2 4.7c-1.5 3.6-2.5 4.8-4.1 4.8-1.8 0-2.9-1.9-6.7-11.6l-4.7-11.5 2.7.3c2.2.3 2.9 1.3 5.4 8.3zm-104.2 12c0 1.8-.5 2.5-2 2.5-2 0-2.8-2.8-1.3-4.3 1.5-1.6 3.3-.6 3.3 1.8z"/><path d="M146 245.5c0 3.3.2 3.5 3.5 3.5 3.9 0 5.9-2.4 4.4-5.2-.6-1.2-2.1-1.8-4.4-1.8-3.3 0-3.5.2-3.5 3.5zm134.6-1.3c-3.5 5-.9 12.8 4.3 12.8 3.7 0 6.5-3.3 6.5-7.5 0-6.6-7.4-10.2-10.8-5.3z"/></svg>