<svg version="1" xmlns="http://www.w3.org/2000/svg" width="413.333" height="413.333" viewBox="0 0 310.000000 310.000000"><path d="M136 1c-.8.5-2.9 1-4.6 1-4.4 0-21.4 4.4-30.9 8.1C50.9 29 14.3 71.5 3.6 122.5c-.9 4.4-2.1 10.2-2.7 13-1.3 6.1-.6 35.4 1 44.4 11.4 63.7 59 113.6 120.6 126.5 4.4.9 10.3 2.1 13 2.7 6.1 1.3 35.4.6 44.5-1 63.4-11.3 113.6-59.1 126.4-120.6.9-4.4 2.1-10.3 2.7-13 1.3-6.1.6-35.4-1-44.4-6.4-35.7-24.5-68.4-50.8-91.4C237.2 21.2 212 8.6 186.9 3.6c-4.6-1-10-2.1-12-2.7-4.8-1.2-37-1.1-38.9.1zm-19.7 107.4c17.2 8.8 23.9 28.5 15.3 45.4-2.4 4.6-9.5 12.2-11.6 12.2-2.3 0-.5 4.3 6.6 16 10.7 17.3 12.6 20.9 11.9 22-.9 1.5-17.8 1.3-19.6-.3-1.5-1.2-6.4-8.7-13.4-20.7-6.9-11.7-5.8-10.9-16.1-11-7.8 0-9.3.3-9.9 1.7-.3 1-.5 7.9-.4 15.4.1 7.5-.1 14.1-.5 14.8-.8 1.2-14.2 1.6-17 .5-1.4-.5-1.6-5.8-1.6-49.4 0-38.1.3-49 1.3-49.4.6-.3 12-.4 25.2-.3l24 .2 5.8 2.9zm131.2 5.6v8.5l-23.8.3-23.8.2.3 11.3.3 11.2 20.5.5 20.5.5.3 7.2c.2 4 .2 7.4 0 7.5-.2.1-9.5.4-20.8.7l-20.5.6-.3 12.2-.3 12.3h23.5c12.9 0 24.1.3 25 .6 1.3.5 1.6 2.2 1.6 8.5 0 7.3-.2 7.9-2.2 8.4-1.3.3-16.7.4-34.3.3l-32-.3-.3-48.5c-.1-26.7 0-49.1.3-49.8.3-1 7.5-1.2 33.2-1l32.8.3v8.5z"/><path d="M79.6 124.6c-1.2 3.2-.7 26.9.7 28.8 1.2 1.6 2.7 1.8 13.3 1.4 13.9-.4 17.3-1.8 20.4-7.8 2.2-4.3 2.6-11.9.9-15.3-.6-1.2-2.5-3.7-4.2-5.5l-3.1-3.2H93.9c-11.6 0-13.8.2-14.3 1.6z"/></svg>