<svg width="104" height="104" viewBox="0 0 104 104" xmlns="http://www.w3.org/2000/svg"><title>Free-56-25-web-seo-internet-user-rating</title><g transform="translate(2 2)" stroke="#2C4F6C" stroke-width="3.5" fill="none" fill-rule="evenodd" stroke-linecap="round" stroke-linejoin="round"><circle fill="#FFF" cx="50" cy="50" r="45"/><path d="M40.41 40.144c-.423.267-1.22 1.94-.86 3.407.537 2.183 2.447 3.035 2.447 3.035s2.987 4.03 2.987 6.374c0 2.344 0 3.255-.8 5.21-.801 1.956-16.517 4.3-17.184 15.827h22.874L73 74c-.667-11.528-16.383-13.872-17.184-15.827-.8-1.956-.8-2.866-.8-5.21s2.987-6.375 2.987-6.375 1.91-.852 2.447-3.034c.36-1.468-.437-3.14-.86-3.407 1.132-3.53 3.393-15.699-9.464-16.137a.975.975 0 0 0-.171-.006c-12.938.442-10.677 12.61-9.544 16.14z" fill="#BCD1E3"/><path d="M50 0v10m0 80v10m50-50H90m-80 0H0" fill="#E1F2FA"/></g></svg>