<svg width="144" height="144" viewBox="0 0 144 144" xmlns="http://www.w3.org/2000/svg"><title>getCoached</title><g fill="none" fill-rule="evenodd"><circle fill="#FFF" cx="72" cy="72" r="72"/><path d="M115.065 82.1l-4.205-12.605-1.462-5.85-.38.096a6.608 6.608 0 0 0 1.127-5.138 32.636 32.636 0 0 0-10.727-18.31 7.984 7.984 0 0 0 1.228-4.251c0-4.434-3.608-8.042-8.042-8.042-4.434 0-8.041 3.608-8.041 8.042 0 3.623 2.41 6.692 5.71 7.695l-2.683 9.392-8.55 5.7c-.026.017-.042.043-.065.063-.014.012-.033.015-.046.028l-8.56 8.559h-8.12a8.005 8.005 0 0 0 1.843-5.118c0-4.434-3.607-8.042-8.042-8.042-4.434 0-8.042 3.608-8.042 8.042a8.02 8.02 0 0 0 2.787 6.073l-4.346 11.299a6.525 6.525 0 0 0 .554 5.837c.307.493.674.93 1.084 1.316l-4.314 7.19-7.247 7.247a.73.73 0 0 0 0 1.033l4.386 4.387a.73.73 0 0 0 1.033 0l8.774-8.772a.779.779 0 0 0 .09-.112l5.85-8.773-.026-.017 3.073.28v7.374h-2.193a.73.73 0 0 0-.585.292l-8.613 11.483-18.748 4.327a.731.731 0 0 0-.567.713V115h1.462v-.88l18.443-4.256a.735.735 0 0 0 .42-.274l8.553-11.405h14.256a.729.729 0 0 0 .544-.242l12.941-14.38H116v-1.462h-.935zm-29.04-46.058a6.588 6.588 0 0 1 6.58-6.58 6.588 6.588 0 0 1 6.58 6.58 6.588 6.588 0 0 1-6.58 6.58 6.588 6.588 0 0 1-6.58-6.58zm-36.554 26.32a6.588 6.588 0 0 1 6.58-6.58 6.588 6.588 0 0 1 6.58 6.58 6.588 6.588 0 0 1-6.58 6.58 6.588 6.588 0 0 1-6.58-6.58zm.163 34.626l-8.205 8.205-3.353-3.353 6.794-6.794a.748.748 0 0 0 .11-.14l4.282-7.136a6.573 6.573 0 0 0 2.732.878l3.017.274-5.377 8.066zm11.534-.265V88.68a.732.732 0 0 0-.665-.728l-8.376-.762a5.075 5.075 0 0 1-3.883-2.394 5.077 5.077 0 0 1-.43-4.54l4.21-10.946a7.978 7.978 0 0 0 8.636-.37h10.012a.73.73 0 0 0 .517-.214l8.056-8.056 2.254 4.507-8.264 9.642-15.788 1.435.132 1.456 1.902-.173-1.2 3.6a.732.732 0 0 0 .574.953l6.33 1.055a2.187 2.187 0 0 1 1.832 2.164v11.413h-5.849zM85.294 82.1a.729.729 0 0 0-.543.242l-12.942 14.38h-3.33V85.31a3.643 3.643 0 0 0-3.054-3.606l-5.486-.914 1.132-3.395 12.591-1.145a.73.73 0 0 0 .49-.252l8.7-10.152 11.603-7.251a.736.736 0 0 0 .267-.293l.578-1.157.895 3.58-5.622 7.028a.734.734 0 0 0-.147.313L87.62 82.101h-2.325zm3.816 0l2.715-13.573 5.738-7.172a.73.73 0 0 0 .138-.634l-1.397-5.586 1.342-2.682-1.308-.655-2.832 5.665-10.842 6.776-2.276-4.552 8.235-5.49a.733.733 0 0 0 .298-.408l2.788-9.758a8.013 8.013 0 0 0 6.822-2.573 31.173 31.173 0 0 1 10.18 17.432 5.145 5.145 0 0 1-1.947 5.098l-8.749 6.56a.733.733 0 0 0-.286.495L96.346 82.1H89.11zm13.178-12.928l1.298 6.491a.715.715 0 0 0 .038.128l2.523 6.309H97.82l1.321-10.568 3.147-2.36zm5.434 12.928l-2.716-6.79-1.422-7.11 4.057-3.043c.185-.138.35-.294.516-.448l1.3 5.194 4.067 12.197h-5.802zM29.731 39.697h27.782a.731.731 0 0 0 .73-.73c0-4.435-3.607-8.043-8.041-8.043-.797 0-1.603.13-2.401.385A10.974 10.974 0 0 0 39.966 28C33.92 28 29 32.92 29 38.966c0 .404.328.731.731.731zm10.235-10.235a9.514 9.514 0 0 1 7.082 3.182.73.73 0 0 0 .807.195 6.543 6.543 0 0 1 2.347-.452 6.59 6.59 0 0 1 6.54 5.848H30.49c.374-4.9 4.482-8.773 9.476-8.773zM53.122 44.08H51.66v1.462h1.462zm5.85 0H57.51v1.462h1.462z" fill-rule="nonzero" fill="#2C4F6C"/><path d="M64.822 44.08H63.36v1.462h1.462z" fill-rule="nonzero" fill="#2C4F6C"/></g></svg>