<svg width="104" height="104" viewBox="0 0 104 104" xmlns="http://www.w3.org/2000/svg"><title>Free-59-38-web-seo-internet-landing-page-startup-launch</title><g stroke="#2C4F6C" stroke-width="3.5" fill="none" fill-rule="evenodd" stroke-linecap="round" stroke-linejoin="round"><path d="M14.245 43.853c-.387.245-1.116 1.784-.786 3.134.49 2.008 2.234 2.792 2.234 2.792s2.727 3.708 2.727 5.864c0 2.157 0 2.995-.73 4.794-.732 1.799-15.08 3.955-15.69 14.56h20.885L44 75c-.61-10.606-14.958-12.762-15.69-14.561-.73-1.8-.73-2.637-.73-4.793 0-2.157 2.727-5.865 2.727-5.865s1.744-.783 2.234-2.791c.33-1.35-.399-2.89-.786-3.135 1.034-3.247 3.099-14.443-8.64-14.846a.883.883 0 0 0-.156-.005c-11.813.406-9.748 11.601-8.714 14.849zm58 0c-.387.245-1.116 1.784-.786 3.134.49 2.008 2.234 2.792 2.234 2.792s2.727 3.708 2.727 5.864c0 2.157 0 2.995-.73 4.794-.732 1.799-15.08 3.955-15.69 14.56h20.885L102 75c-.61-10.606-14.958-12.762-15.69-14.561-.73-1.8-.73-2.637-.73-4.793 0-2.157 2.727-5.865 2.727-5.865s1.744-.783 2.234-2.791c.33-1.35-.399-2.89-.786-3.135 1.034-3.247 3.099-14.443-8.64-14.846a.883.883 0 0 0-.156-.005c-11.813.406-9.748 11.601-8.714 14.849z" fill="#BCD1E3"/><path d="M23 16S31.122 2 52 2s28.5 14 28.5 14"/><path d="M72.386 10.568l6.364 6.364 6.364-6.364M81 88s-8.122 14-29 14-28.5-14-28.5-14"/><path d="M32 88h-9v9"/></g></svg>