<svg width="311" height="257" viewBox="0 0 311 257" xmlns="http://www.w3.org/2000/svg"><title>logoNew</title><g fill="none" fill-rule="evenodd"><g fill="#FFF"><path d="M136.88 51.237L70.033 81.969.142 49.85v172.984l68.293 31.379.533.252 1.635-.016 66.265-30.228 69.371 31.883V83.135l-69.358-31.898zM66.852 245.37L6.264 217.522V60.772L66.851 88.62v156.75zM206.264 83.06l60.84-30.71v173.567l-60.84 30.955V83.06zm-6.147 162.121l-60.181-27.675V60.772l60.18 27.659v156.75zm6.977-59.041l-4.397-8.08a530.542 530.542 0 0 0 8.057-4.488l4.534 8.01c-2.785 1.566-5.547 3.13-8.194 4.558zm16.297 9.23l-4.581-7.987 8.125-4.604 4.535 8.01-8.08 4.581zm-96.423 9.53a82.518 82.518 0 0 1-2.601-2.348 80.67 80.67 0 0 0-4.213-3.614l5.686-7.228a81.086 81.086 0 0 1 4.81 4.12c.783.737 1.566 1.45 2.349 2.141l-6.031 6.929zm112.558-.806l-4.373-8.102c3.153-1.704 6.03-3.177 8.609-4.328l3.798 8.379c-2.394 1.082-5.11 2.486-8.034 4.051zm16.09 4.19l-2.417-8.886c2.9-.782 6.077-1.542 9.368-2.186l1.75 9.023a135.52 135.52 0 0 0-8.701 2.048zM72.783 211.16l-4.557-8.01c2.578-1.45 6.353-3.27 9.76-3.592l1.864 9.047-1.036.138c-1.013.092-3.154.782-6.03 2.417zm40.305 1.887a35.89 35.89 0 0 0-7.62-3.061l2.395-8.885c3.222.874 6.445 2.163 9.575 3.844l-4.35 8.102zm-25.711-9.53c3.521-.667 6.583-.99 9.667-.99l.46 4.604-.137 4.604c-2.809-.023-5.318.253-8.218.829l-1.772-9.046z" stroke="#434F5E" stroke-width=".2"/><path d="M177.789 11.392l18.119 2.224 10.75-11.596L213.617.8l-8.522 13.944 16.507 2.027 5.864-3.662-2.155 17.555-4.773-5.226-16.507-2.026 4.854 15.93-6.494-2.576-7.547-14.482-18.12-2.225c-5.012-.616-6.041-8.299 1.065-8.667z"/></g><path d="M271.925 193.926c12.874-2.825 21.203-10.872 24.987-24.14 5.676-19.904 14.522-50.55 6.571-78.823-7.95-28.273-19.495-38.32-31.558-47.682-8.043-6.241-19.037-11.93-32.982-17.068" stroke="#FFF" stroke-width="8" stroke-dasharray="11"/><path d="M0 118.546c2.949.024 5.828.328 8.472.89l1.92-9.175c-3.254-.679-6.718-1.03-10.275-1.076L0 118.546zm16.313 3.51a27.184 27.184 0 0 1 6.576 4.541l6.436-6.787a37.195 37.195 0 0 0-8.893-6.155l-4.12 8.402zm11.491 10.907c1.31 2.27 2.387 4.868 3.23 7.677l8.987-2.668c-1.053-3.511-2.41-6.764-4.072-9.666l-8.145 4.657zm5.945 16.898a94.525 94.525 0 0 0 3.604 9.22l8.542-3.837a87.435 87.435 0 0 1-3.276-8.356l-8.87 2.973zm155.94 11.678c2.364.843 5.126 2.083 8.168 3.581l4.143-8.378c-3.417-1.686-6.506-3.066-9.151-4.026l-3.16 8.823zm-9.642-8.612c-1.802.983-4.962 2.06-8.028 3.066l2.973 8.893c4.236-1.428 7.208-2.457 9.572-3.745l-4.517-8.214zm-17.108 6.225a131.575 131.575 0 0 0-9.034 3.745l3.932 8.495a124.766 124.766 0 0 1 8.378-3.487l-3.276-8.753zm-121.07 8.753a96.815 96.815 0 0 0 5.454 8.332l7.536-5.547a81.249 81.249 0 0 1-4.891-7.489l-8.098 4.704zm103.26-.444a112.382 112.382 0 0 0-8.286 5.382l5.453 7.607a88.976 88.976 0 0 1 7.536-4.892l-4.704-8.097zm-91.464 16.476a81.128 81.128 0 0 0 7.302 6.928l5.968-7.209a72.505 72.505 0 0 1-6.412-6.085l-6.858 6.366z" fill="#FFF"/></g></svg>