<svg width="110" height="114" viewBox="0 0 110 114" xmlns="http://www.w3.org/2000/svg"><title>makePlan</title><g fill="#09294A" fill-rule="evenodd"><path d="M0 15.2v91.2l7.846 7.6h86.308l7.846-7.6V53.2l-7.846 7.6v45.6H7.846v-76h15.692v-7.6H7.846v-7.6h15.692V7.6H7.846L0 15.2zm31.385 15.2h15.692l7.846-7.6 7.846-7.6 7.846-7.6V0h-39.23v30.4zM47.077 7.6h7.846v7.6h-7.846V7.6z"/><path d="M22.917 76.25L38.75 91.417l55.417-53.084-15.834-15.166L22.917 76.25zm79.166-45.5L110 23.167v-7.584L102.083 8h-7.916l-7.917 7.583 15.833 15.167zM22.917 83.833L15 99l15.833-7.583-7.916-7.584z"/></g></svg>