<svg width="144" height="144" viewBox="0 0 144 144" xmlns="http://www.w3.org/2000/svg"><title>ovalMakeplan</title><g fill="none" fill-rule="evenodd"><circle fill="#FFF" cx="72" cy="72" r="72"/><g fill="#09294A"><path d="M24 35.333v80L31.133 122h78.461l7.133-6.667V68.667l-7.133 6.666v40H31.133V48.667h14.266V42H31.133v-6.667h14.266v-6.666H31.133L24 35.333zm28.531 13.334h14.266L73.93 42l7.133-6.667 7.133-6.666V22H52.53v26.667zm14.266-20h7.133v6.666h-7.133v-6.666z"/><path d="M44.833 88.886l14.394 13.304 50.38-46.564-14.395-13.304-50.379 46.564zm71.97-39.912L124 42.322V35.67l-7.197-6.652h-7.197l-7.197 6.652 14.394 13.304zm-71.97 46.564l-7.197 13.304 14.394-6.652-7.197-6.652z"/></g></g></svg>