<?xml version="1.0" encoding="UTF-8"?>
<svg width="144px" height="144px" viewBox="0 0 144 144" version="1.1" xmlns="http://www.w3.org/2000/svg" xmlns:xlink="http://www.w3.org/1999/xlink">
    <!-- Generator: Sketch 46.1 (44463) - http://www.bohemiancoding.com/sketch -->
    <title>bookSessions</title>
    <desc>Created with Sketch.</desc>
    <defs></defs>
    <g id="icons" stroke="none" stroke-width="1" fill="none" fill-rule="evenodd">
        <g id="bookSessions">
            <circle id="Oval" fill="#FFFFFF" cx="72" cy="72" r="72"></circle>
            <g id="Vector" transform="translate(26.000000, 44.000000)" fill-rule="nonzero" fill="#2C4F6C">
                <g id="path0_fill-link" transform="translate(0.000000, 0.980000)">
                    <path d="M88,7.43024 L88,5.97253 L83.6,5.97253 L71.8667,5.97253 L64.0515,5.97253 L61.2597,3.19704 C56.9705,-1.06604 49.9921,-1.06532 45.7035,3.19704 L43.2146,5.67078 L41.0513,3.52065 C39.8053,2.28159 38.148,1.59939 36.3843,1.59939 L0,1.59939 L0,3.0571 L5.13333,3.0571 L5.13333,27.8382 L0,27.8382 L0,29.2959 L6.24433,29.2959 L10.9208,33.9431 C10.7925,35.5976 11.3593,37.2951 12.6302,38.5575 C13.7845,39.704 15.3003,40.2776 16.8153,40.2776 C17.3727,40.2776 17.9293,40.1989 18.4683,40.0437 C17.8882,42.0371 18.3861,44.2776 19.9635,45.8461 C21.1178,46.9926 22.6336,47.5662 24.1487,47.5662 C24.706,47.5662 25.2626,47.4875 25.8016,47.3322 C25.2215,49.3257 25.7195,51.5662 27.2969,53.1347 C28.4511,54.2812 29.9669,54.8548 31.482,54.8548 C32.0393,54.8548 32.5959,54.776 33.1349,54.6208 C32.5549,56.6142 33.0528,58.8547 34.6302,60.4232 C35.7845,61.5697 37.3003,62.1433 38.8153,62.1433 C38.9679,62.1433 39.1204,62.1331 39.2722,62.1215 L41.9635,64.7964 C43.1178,65.9429 44.6336,66.5165 46.1487,66.5165 C47.6645,66.5165 49.1803,65.9429 50.3338,64.7964 C51.4507,63.6856 52.0667,62.2082 52.0667,60.6368 C52.0667,60.3912 52.0461,60.1492 52.0168,59.9094 C52.9225,60.4225 53.9337,60.6856 54.9479,60.6856 C56.4637,60.6856 57.9795,60.112 59.1331,58.9655 C60.2507,57.8547 60.8667,56.3773 60.8667,54.8059 C60.8667,54.5603 60.8461,54.3183 60.8168,54.0785 C61.7225,54.5916 62.7337,54.8548 63.7479,54.8548 C65.2637,54.8548 66.7795,54.2812 67.9331,53.1347 C69.0507,52.0239 69.6667,50.5465 69.6667,48.9751 C69.6667,48.7295 69.6461,48.4875 69.6168,48.2477 C70.5225,48.7608 71.5337,49.0239 72.5479,49.0239 C74.0637,49.0239 75.5795,48.4503 76.7331,47.3038 C77.8507,46.193 78.4667,44.7156 78.4667,43.1442 C78.4667,41.5728 77.8507,40.0954 76.7331,38.9846 L71.3849,33.6691 L71.8667,33.6691 L83.6,33.6691 L88,33.6691 L88,32.2114 L84.3333,32.2114 L84.3333,7.43024 L88,7.43024 Z M13.6664,37.5269 C11.9306,35.8017 11.9306,32.9942 13.6664,31.269 L19.5331,25.4381 C20.4013,24.5751 21.5409,24.1444 22.6813,24.1444 C23.8216,24.1444 24.9619,24.5759 25.8295,25.4381 C26.6706,26.2741 27.1333,27.3849 27.1333,28.5671 C27.1333,29.7493 26.6706,30.8601 25.8295,31.6961 L19.9628,37.5269 C18.2263,39.2521 15.4022,39.2521 13.6664,37.5269 Z M20.9997,44.8155 C19.2639,43.0903 19.2639,40.2827 20.9997,38.5575 L26.8664,32.7267 C27.7347,31.8637 28.8743,31.4329 30.0146,31.4329 C31.1549,31.4329 32.2953,31.8644 33.1628,32.7267 C34.0039,33.5627 34.4667,34.6734 34.4667,35.8557 C34.4667,37.0379 34.0039,38.1486 33.1628,38.9846 L27.2961,44.8155 C25.5596,46.5407 22.7355,46.5407 20.9997,44.8155 Z M28.3331,52.1041 C26.5973,50.3789 26.5973,47.5713 28.3331,45.8461 L34.1997,40.0152 C35.068,39.1523 36.2076,38.7215 37.3479,38.7215 C38.4883,38.7215 39.6286,39.153 40.4961,40.0152 C41.3373,40.8512 41.8,41.962 41.8,43.1442 C41.8,44.3264 41.3373,45.4372 40.4961,46.2732 L34.6295,52.1041 C32.8929,53.8293 30.0689,53.8293 28.3331,52.1041 Z M35.6664,59.3926 C33.9306,57.6674 33.9306,54.8599 35.6664,53.1347 L41.5331,47.3038 C42.4013,46.4408 43.5409,46.0101 44.6813,46.0101 C45.8216,46.0101 46.9619,46.4416 47.8295,47.3038 C48.6706,48.1398 49.1333,49.2506 49.1333,50.4328 C49.1333,51.615 48.6706,52.7258 47.8295,53.5618 L41.9628,59.3926 C40.2263,61.1178 37.4022,61.1178 35.6664,59.3926 Z M49.2961,63.7658 C47.5603,65.491 44.7355,65.491 42.9997,63.7658 L40.9625,61.741 C41.7047,61.4546 42.4013,61.018 42.9997,60.4232 L47.6146,55.8365 L48.5628,56.7789 L49.2961,57.5078 C50.1373,58.3438 50.6,59.4546 50.6,60.6368 C50.6,61.819 50.1373,62.9298 49.2961,63.7658 Z M77,43.1442 C77,44.3264 76.5373,45.4372 75.6961,46.2732 C73.9603,47.9984 71.1355,47.9984 69.3997,46.2732 L67.9331,44.8155 L67.1997,44.0866 L65.7331,42.6289 L64.6961,43.6595 L66.1628,45.1172 L66.8961,45.8461 C67.7373,46.6821 68.2,47.7929 68.2,48.9751 C68.2,50.1573 67.7373,51.2681 66.8961,52.1041 C65.1603,53.8293 62.3355,53.8293 60.5997,52.1041 L59.1331,50.6463 L58.3997,49.9175 L56.9331,48.4598 L55.8961,49.4904 L57.3628,50.9481 L58.0961,51.6769 C58.9373,52.5129 59.4,53.6237 59.4,54.8059 C59.4,55.9881 58.9373,57.0989 58.0961,57.9349 C56.3603,59.6601 53.5355,59.6601 51.7997,57.9349 L50.3331,56.4772 L49.5997,55.7483 L48.6515,54.8059 L48.8664,54.5924 C49.984,53.4816 50.6,52.0042 50.6,50.4328 C50.6,48.8614 49.984,47.384 48.8664,46.2732 C47.2897,44.7054 45.0362,44.2113 43.0313,44.7863 C43.1845,44.2594 43.2667,43.7084 43.2667,43.1442 C43.2667,41.5728 42.6507,40.0954 41.5331,38.9846 C39.9564,37.4169 37.7036,36.9227 35.6979,37.4978 C35.8512,36.9708 35.9333,36.4198 35.9333,35.8557 C35.9333,34.2842 35.3173,32.8068 34.1997,31.6961 C32.6231,30.1283 30.3703,29.6341 28.3646,30.2092 C28.5179,29.6822 28.6,29.1312 28.6,28.5671 C28.6,26.9957 27.984,25.5183 26.8664,24.4075 C24.5601,22.1145 20.8047,22.1138 18.4961,24.4075 L12.6295,30.2384 C12.0311,30.8331 11.5918,31.5248 11.3036,32.2624 L7.0664,28.0518 C6.94173,27.9279 6.77453,27.8616 6.6,27.8484 L6.6,3.0571 L36.3843,3.0571 C37.7557,3.0571 39.0449,3.58771 40.0143,4.55125 L42.1777,6.70138 L30.9628,17.8478 C30.6761,18.1328 30.6761,18.5934 30.9628,18.8784 C33.0601,20.9629 35.849,22.1109 38.8146,22.1109 C41.7809,22.1109 44.5691,20.9629 46.6664,18.8784 L50.5479,15.0206 L75.6961,40.0152 C76.5373,40.8512 77,41.962 77,43.1442 Z M51.5849,13.9899 L53.9997,11.5898 L52.9628,10.5592 L45.6295,17.8478 C43.8093,19.6568 41.3893,20.6532 38.8146,20.6532 C36.4863,20.6532 34.2841,19.8383 32.5373,18.3441 L46.7397,4.22837 C50.457,0.534526 56.5048,0.534526 60.2221,4.22837 L63.2287,7.21741 C63.3666,7.35371 63.5536,7.43024 63.7479,7.43024 L71.1333,7.43024 L71.1333,32.2114 L69.9182,32.2114 L51.5849,13.9899 Z M82.8667,32.2114 L72.6,32.2114 L72.6,7.43024 L82.8667,7.43024 L82.8667,32.2114 Z" id="path0_fill"></path>
                </g>
            </g>
            <g id="Vector" transform="translate(103.000000, 72.000000)" fill-rule="nonzero" fill="#2C4F6C">
                <g id="path1_fill-link" transform="translate(0.000000, 0.090000)">
                    <polygon id="path1_fill" points="1.46667 0 0 0 0 1.45771 1.46667 1.45771"></polygon>
                </g>
            </g>
            <g id="Vector" transform="translate(50.000000, 112.000000)" fill-rule="nonzero" fill="#2C4F6C">
                <g id="path2_fill-link" transform="translate(0.940000, 0.310000)">
                    <path d="M3.58073e-07,1.30757 C0.437067,1.52113 0.877801,1.72739 1.32293,1.92637 L1.92427,0.596936 C1.49527,0.405247 1.0692,0.206269 0.647533,2.17981e-06 L3.58073e-07,1.30757 Z" id="path2_fill"></path>
                </g>
            </g>
            <g id="Vector" transform="translate(45.000000, 109.000000)" fill-rule="nonzero" fill="#2C4F6C">
                <g id="path3_fill-link" transform="translate(0.890000, 0.510000)">
                    <path d="M4.02832e-07,1.20917 C0.404067,1.47885 0.811799,1.74197 1.22467,1.99853 L2.002,0.762385 C1.60307,0.514574 1.2078,0.260199 0.817666,-2.66915e-06 L4.02832e-07,1.20917 Z" id="path3_fill"></path>
                </g>
            </g>
            <g id="Vector" transform="translate(48.000000, 110.000000)" fill-rule="nonzero" fill="#2C4F6C">
                <g id="path4_fill-link" transform="translate(0.370000, 0.990000)">
                    <path d="M0,1.26238 C0.420933,1.50436 0.847001,1.73978 1.27673,1.96791 L1.96753,0.681479 C1.55247,0.461365 1.1418,0.233963 0.734799,0 L0,1.26238 Z" id="path4_fill"></path>
                </g>
            </g>
            <g id="Vector" transform="translate(39.000000, 104.000000)" fill-rule="nonzero" fill="#2C4F6C">
                <g id="path5_fill-link" transform="translate(0.170000, 0.150000)">
                    <path d="M3.46883e-07,1.02259 C0.341,1.36733 0.687866,1.70552 1.0406,2.03788 L2.0504,0.981041 C1.71013,0.659615 1.375,0.332358 1.045,-7.5626e-07 L3.46883e-07,1.02259 Z" id="path5_fill"></path>
                </g>
            </g>
            <g id="Vector" transform="translate(41.000000, 106.000000)" fill-rule="nonzero" fill="#2C4F6C">
                <g id="path6_fill-link" transform="translate(0.280000, 0.080000)">
                    <path d="M3.24504e-07,1.09037 C0.363734,1.41106 0.7326,1.72594 1.1066,2.03424 L2.04307,0.91253 C1.6808,0.613699 1.32513,0.309766 0.973866,2.35775e-06 L3.24504e-07,1.09037 Z" id="path6_fill"></path>
                </g>
            </g>
            <g id="Vector" transform="translate(43.000000, 107.000000)" fill-rule="nonzero" fill="#2C4F6C">
                <g id="path7_fill-link" transform="translate(0.520000, 0.860000)">
                    <path d="M-4.69971e-07,1.15232 C0.384266,1.44824 0.773667,1.73832 1.1682,2.02112 L2.02693,0.839642 C1.6456,0.566321 1.2694,0.286439 0.8976,-1.46803e-06 L-4.69971e-07,1.15232 Z" id="path7_fill"></path>
                </g>
            </g>
            <g id="Vector" transform="translate(59.000000, 115.000000)" fill-rule="nonzero" fill="#2C4F6C">
                <g id="path8_fill-link" transform="translate(0.150000, 0.230000)">
                    <path d="M5.37109e-07,1.41179 C0.469334,1.53278 0.942333,1.64503 1.41827,1.74999 L1.73653,0.327255 C1.27747,0.225944 0.820601,0.116618 0.366667,5.78317e-07 L5.37109e-07,1.41179 Z" id="path8_fill"></path>
                </g>
            </g>
            <g id="Vector" transform="translate(53.000000, 113.000000)" fill-rule="nonzero" fill="#2C4F6C">
                <g id="path9_fill-link" transform="translate(0.610000, 0.460000)">
                    <path d="M-4.69971e-07,1.34839 C0.451,1.53206 0.904934,1.70771 1.36253,1.87681 L1.87147,0.509473 C1.42927,0.346938 0.991465,0.17711 0.556599,-2.04635e-06 L-4.69971e-07,1.34839 Z" id="path9_fill"></path>
                </g>
            </g>
            <g id="Vector" transform="translate(62.000000, 115.000000)" fill-rule="nonzero" fill="#2C4F6C">
                <g id="path10_fill-link" transform="translate(0.000000, 0.840000)">
                    <path d="M9.17562e-07,1.43293 C0.476668,1.52185 0.956266,1.60202 1.43807,1.67564 L1.6588,0.233963 C1.19313,0.163992 0.730401,0.0860054 0.269868,3.11401e-07 L9.17562e-07,1.43293 Z" id="path10_fill"></path>
                </g>
            </g>
            <g id="Vector" transform="translate(56.000000, 114.000000)" fill-rule="nonzero" fill="#2C4F6C">
                <g id="path11_fill-link" transform="translate(0.350000, 0.440000)">
                    <path d="M-1.23088e-06,1.38337 C0.462732,1.53643 0.928401,1.68147 1.397,1.8185 L1.81133,0.42055 C1.35887,0.287898 0.910068,0.147955 0.464201,-2.71364e-06 L-1.23088e-06,1.38337 Z" id="path11_fill"></path>
                </g>
            </g>
            <g id="Vector" transform="translate(32.000000, 95.000000)" fill-rule="nonzero" fill="#2C4F6C">
                <g id="path12_fill-link" transform="translate(0.190000, 0.220000)">
                    <path d="M1.2804,-7.5626e-07 L7.27336e-08,0.710634 C0.236867,1.13264 0.480333,1.54955 0.731133,1.96208 L1.9866,1.20918 C1.7446,0.810491 1.5092,0.40743 1.2804,-7.5626e-07 Z" id="path12_fill"></path>
                </g>
            </g>
            <g id="Vector" transform="translate(29.000000, 90.000000)" fill-rule="nonzero" fill="#2C4F6C">
                <g id="path13_fill-link" transform="translate(0.710000, 0.170000)">
                    <path d="M1.36473,-2.58018e-06 L-2.85339e-07,0.532065 C0.177466,0.98177 0.362266,1.4271 0.553666,1.86879 L1.90007,1.29081 C1.71453,0.865153 1.53633,0.434396 1.36473,-2.58018e-06 Z" id="path13_fill"></path>
                </g>
            </g>
            <g id="Vector" transform="translate(28.000000, 87.000000)" fill-rule="nonzero" fill="#2C4F6C">
                <g id="path14_fill-link" transform="translate(0.740000, 0.540000)">
                    <path d="M1.39847,-1.02318e-06 L-1.45467e-07,0.440231 C0.146667,0.900869 0.3014,1.35932 0.462734,1.81412 L1.8458,1.32798 C1.6896,0.889203 1.54,0.446059 1.39847,-1.02318e-06 Z" id="path14_fill"></path>
                </g>
            </g>
            <g id="Vector" transform="translate(27.000000, 84.000000)" fill-rule="nonzero" fill="#2C4F6C">
                <g id="path15_fill-link" transform="translate(0.950000, 0.840000)">
                    <path d="M1.42487,8.00746e-07 L2.5177e-08,0.344021 C0.115133,0.814863 0.2376,1.28206 0.368133,1.74634 L1.78127,1.35495 C1.6544,0.905971 1.53633,0.454807 1.42487,8.00746e-07 Z" id="path15_fill"></path>
                </g>
            </g>
            <g id="Vector" transform="translate(27.000000, 82.000000)" fill-rule="nonzero" fill="#2C4F6C">
                <g id="path16_fill-link" transform="translate(0.360000, 0.100000)">
                    <path d="M1.4454,-3.55887e-07 L-9.23157e-08,0.24708 C0.0828666,0.724481 0.173067,1.1997 0.272067,1.67127 L1.70793,1.37535 C1.6126,0.919818 1.52533,0.461366 1.4454,-3.55887e-07 Z" id="path16_fill"></path>
                </g>
            </g>
            <g id="Vector" transform="translate(26.000000, 79.000000)" fill-rule="nonzero" fill="#2C4F6C">
                <g id="path17_fill-link" transform="translate(0.970000, 0.330000)">
                    <path d="M1.4586,-1.77944e-07 L-1.11898e-08,0.150145 C0.0498667,0.632648 0.108533,1.11151 0.174533,1.58891 L1.62727,1.39066 C1.56347,0.92929 1.507,0.465739 1.4586,-1.77944e-07 Z" id="path17_fill"></path>
                </g>
            </g>
            <g id="Vector" transform="translate(30.000000, 92.000000)" fill-rule="nonzero" fill="#2C4F6C">
                <g id="path18_fill-link" transform="translate(0.860000, 0.740000)">
                    <path d="M1.3266,1.33458e-06 L-2.12606e-07,0.622442 C0.207533,1.05903 0.4224,1.49124 0.643867,1.91981 L1.94773,1.25291 C1.73433,0.838917 1.52753,0.421281 1.3266,1.33458e-06 Z" id="path18_fill"></path>
                </g>
            </g>
            <g id="Vector" transform="translate(35.000000, 99.000000)" fill-rule="nonzero" fill="#2C4F6C">
                <g id="path19_fill-link" transform="translate(0.370000, 0.910000)">
                    <path d="M1.17333,-5.33831e-07 L-4.69971e-07,0.874625 C0.291133,1.26092 0.589599,1.64211 0.893933,2.0182 L2.0372,1.10495 C1.74313,0.742704 1.45493,0.373903 1.17333,-5.33831e-07 Z" id="path19_fill"></path>
                </g>
            </g>
            <g id="Vector" transform="translate(37.000000, 102.000000)" fill-rule="nonzero" fill="#2C4F6C">
                <g id="path20_fill-link" transform="translate(0.190000, 0.090000)">
                    <path d="M1.11173,2.26878e-06 L-2.34985e-07,0.951161 C0.317533,1.31705 0.6402,1.67855 0.968734,2.03351 L2.0482,1.04664 C1.73067,0.702618 1.41827,0.353498 1.11173,2.26878e-06 Z" id="path20_fill"></path>
                </g>
            </g>
            <g id="Vector" transform="translate(33.000000, 97.000000)" fill-rule="nonzero" fill="#2C4F6C">
                <g id="path21_fill-link" transform="translate(0.700000, 0.610000)">
                    <path d="M1.2298,1.91289e-06 L2.12606e-07,0.794453 C0.264734,1.1997 0.536067,1.59911 0.814,1.99488 L2.01667,1.15961 C1.74827,0.777689 1.48573,0.391398 1.2298,1.91289e-06 Z" id="path21_fill"></path>
                </g>
            </g>
            <g id="Vector" transform="translate(64.000000, 116.000000)" fill-rule="nonzero" fill="#2C4F6C">
                <g id="path22_fill-link" transform="translate(0.880000, 0.260000)">
                    <path d="M3.35693e-07,1.44751 C0.481067,1.50436 0.965067,1.55247 1.45127,1.59328 L1.57373,0.140667 C1.1044,0.101309 0.637267,0.0546667 0.172334,2.44672e-06 L3.35693e-07,1.44751 Z" id="path22_fill"></path>
                </g>
            </g>
            <g id="Vector" transform="translate(98.000000, 104.000000)" fill-rule="nonzero" fill="#2C4F6C">
                <g id="path23_fill-link" transform="translate(0.710000, 0.220000)">
                    <path d="M-2.05892e-06,0.978853 L1.00687,2.03861 C1.36033,1.70625 1.70867,1.36879 2.0504,1.02477 L1.0076,2.49121e-06 C0.676865,0.331632 0.340998,0.658156 -2.05892e-06,0.978853 Z" id="path23_fill"></path>
                </g>
            </g>
            <g id="Vector" transform="translate(102.000000, 99.000000)" fill-rule="nonzero" fill="#2C4F6C">
                <g id="path24_fill-link" transform="translate(0.530000, 0.990000)">
                    <path d="M4.47591e-08,1.10422 L1.14107,2.02039 C1.44687,1.6443 1.74607,1.26311 2.0394,0.876815 L0.867532,-1.29009e-06 C0.584466,0.372445 0.295533,0.741246 4.47591e-08,1.10422 Z" id="path24_fill"></path>
                </g>
            </g>
            <g id="Vector" transform="translate(104.000000, 97.000000)" fill-rule="nonzero" fill="#2C4F6C">
                <g id="path25_fill-link" transform="translate(0.230000, 0.690000)">
                    <path d="M2.64079e-06,1.16107 L1.20046,1.99852 C1.47986,1.60348 1.75267,1.20261 2.0196,0.797367 L0.791265,1.95738e-06 C0.533865,0.392127 0.270603,0.778417 2.64079e-06,1.16107 Z" id="path25_fill"></path>
                </g>
            </g>
            <g id="Vector" transform="translate(100.000000, 102.000000)" fill-rule="nonzero" fill="#2C4F6C">
                <g id="path26_fill-link" transform="translate(0.690000, 0.170000)">
                    <path d="M8.95182e-08,1.04373 L1.0758,2.03424 C1.40654,1.68001 1.73067,1.31923 2.04893,0.953347 L0.939399,-2.44672e-06 C0.632132,0.353493 0.319,0.701163 8.95182e-08,1.04373 Z" id="path26_fill"></path>
                </g>
            </g>
            <g id="Vector" transform="translate(96.000000, 106.000000)" fill-rule="nonzero" fill="#2C4F6C">
                <g id="path27_fill-link" transform="translate(0.600000, 0.150000)">
                    <path d="M-1.25326e-06,0.908882 L0.932801,2.03351 C1.30827,1.72593 1.67787,1.41179 2.0416,1.09255 L1.07066,2.44672e-06 C0.718665,0.308309 0.362265,0.611509 -1.25326e-06,0.908882 Z" id="path27_fill"></path>
                </g>
            </g>
            <g id="Vector" transform="translate(105.000000, 95.000000)" fill-rule="nonzero" fill="#2C4F6C">
                <g id="path28_fill-link" transform="translate(0.770000, 0.300000)">
                    <path d="M-8.95182e-08,1.21136 L1.254,1.96718 C1.50627,1.55319 1.75193,1.13556 1.98953,0.713549 L0.710601,8.89718e-07 C0.480335,0.408161 0.243467,0.811949 -8.95182e-08,1.21136 Z" id="path28_fill"></path>
                </g>
            </g>
            <g id="Vector" transform="translate(94.000000, 107.000000)" fill-rule="nonzero" fill="#2C4F6C">
                <g id="path29_fill-link" transform="translate(0.360000, 0.930000)">
                    <path d="M-1.11898e-06,0.835998 L0.856532,2.01966 C1.25107,1.73759 1.64047,1.4497 2.02473,1.15451 L1.12933,2.62467e-06 C0.757533,0.284986 0.381332,0.563406 -1.11898e-06,0.835998 Z" id="path29_fill"></path>
                </g>
            </g>
            <g id="Vector" transform="translate(109.000000, 87.000000)" fill-rule="nonzero" fill="#2C4F6C">
                <g id="path30_fill-link" transform="translate(0.400000, 0.590000)">
                    <path d="M-3.13314e-07,1.33089 L1.38233,1.8185 C1.54513,1.36296 1.7006,0.903782 1.84874,0.441686 L0.450998,2.71364e-06 C0.307265,0.446792 0.156933,0.889934 -3.13314e-07,1.33089 Z" id="path30_fill"></path>
                </g>
            </g>
            <g id="Vector" transform="translate(107.000000, 92.000000)" fill-rule="nonzero" fill="#2C4F6C">
                <g id="path31_fill-link" transform="translate(0.150000, 0.810000)">
                    <path d="M2.68555e-06,1.25509 L1.3024,1.92564 C1.52606,1.49634 1.7424,1.06267 1.9514,0.624632 L0.626267,2.22429e-07 C0.4246,0.422008 0.215603,0.840372 2.68555e-06,1.25509 Z" id="path31_fill"></path>
                </g>
            </g>
            <g id="Vector" transform="translate(67.000000, 116.000000)" fill-rule="nonzero" fill="#2C4F6C">
                <g id="path32_fill-link" transform="translate(0.790000, 0.490000)">
                    <path d="M-7.38525e-07,1.45553 C0.483266,1.48031 0.969466,1.49634 1.45713,1.50436 L1.48207,0.0466449 C1.01053,0.0386275 0.541201,0.022596 0.0740672,1.42355e-06 L-7.38525e-07,1.45553 Z" id="path32_fill"></path>
                </g>
            </g>
            <g id="Vector" transform="translate(108.000000, 90.000000)" fill-rule="nonzero" fill="#2C4F6C">
                <g id="path33_fill-link" transform="translate(0.360000, 0.230000)">
                    <path d="M-2.1932e-06,1.29591 L1.34493,1.87681 C1.53926,1.43293 1.72553,0.985417 1.90446,0.534255 L0.540464,1.51252e-06 C0.367397,0.435858 0.186998,0.86807 -2.1932e-06,1.29591 Z" id="path33_fill"></path>
                </g>
            </g>
            <g id="Vector" transform="translate(110.000000, 84.000000)" fill-rule="nonzero" fill="#2C4F6C">
                <g id="path34_fill-link" transform="translate(0.250000, 0.890000)">
                    <path d="M3.58073e-07,1.35495 L1.4124,1.74853 C1.54367,1.28425 1.66687,0.816319 1.78273,0.346207 L0.357866,9.7869e-07 C0.2464,0.454808 0.126867,0.905971 3.58073e-07,1.35495 Z" id="path34_fill"></path>
                </g>
            </g>
            <g id="Vector" transform="translate(81.000000, 114.000000)" fill-rule="nonzero" fill="#2C4F6C">
                <g id="path35_fill-link" transform="translate(0.790000, 0.460000)">
                    <path d="M-1.83512e-06,0.416909 L0.412867,1.81558 C0.880001,1.67929 1.3442,1.5357 1.80474,1.3841 L1.3442,-2.00186e-06 C0.899798,0.146498 0.451731,0.284986 -1.83512e-06,0.416909 Z" id="path35_fill"></path>
                </g>
            </g>
            <g id="Vector" transform="translate(79.000000, 115.000000)" fill-rule="nonzero" fill="#2C4F6C">
                <g id="path36_fill-link" transform="translate(0.060000, 0.240000)">
                    <path d="M-2.32747e-06,0.326525 L0.318269,1.74926 C0.793469,1.6443 1.26573,1.53206 1.7358,1.41253 L1.37133,-1.06766e-06 C0.9174,0.116616 0.459798,0.225214 -2.32747e-06,0.326525 Z" id="path36_fill"></path>
                </g>
            </g>
            <g id="Vector" transform="translate(76.000000, 115.000000)" fill-rule="nonzero" fill="#2C4F6C">
                <g id="path37_fill-link" transform="translate(0.290000, 0.850000)">
                    <path d="M2.55127e-06,0.232506 L0.219266,1.67418 C0.7018,1.60203 1.18067,1.52186 1.65733,1.43366 L1.38967,6.67288e-07 C0.929133,0.0852769 0.465669,0.162536 2.55127e-06,0.232506 Z" id="path37_fill"></path>
                </g>
            </g>
            <g id="Vector" transform="translate(70.000000, 116.000000)" fill-rule="nonzero" fill="#2C4F6C">
                <g id="path38_fill-link" transform="translate(0.680000, 0.500000)">
                    <path d="M-2.55127e-06,0.0459152 L0.0249339,1.50363 C0.512601,1.49488 0.998067,1.47958 1.48133,1.45626 L1.40947,2.22429e-07 C0.941601,0.0225948 0.471531,0.0378978 -2.55127e-06,0.0459152 Z" id="path38_fill"></path>
                </g>
            </g>
            <g id="Vector" transform="translate(73.000000, 116.000000)" fill-rule="nonzero" fill="#2C4F6C">
                <g id="path39_fill-link" transform="translate(0.490000, 0.270000)">
                    <path d="M1.16374e-06,0.138483 L0.121735,1.59109 C0.607935,1.55101 1.0912,1.5029 1.57227,1.44751 L1.40287,-1.15663e-06 C0.937936,0.0539342 0.470068,0.099854 1.16374e-06,0.138483 Z" id="path39_fill"></path>
                </g>
            </g>
            <g id="Vector" transform="translate(84.000000, 113.000000)" fill-rule="nonzero" fill="#2C4F6C">
                <g id="path40_fill-link" transform="translate(0.460000, 0.490000)">
                    <path d="M2.50651e-06,0.505098 L0.506732,1.87316 C0.962865,1.70625 1.4146,1.53133 1.8634,1.34984 L1.30973,-1.77944e-07 C0.877066,0.174925 0.440003,0.343292 2.50651e-06,0.505098 Z" id="path40_fill"></path>
                </g>
            </g>
            <g id="Vector" transform="translate(89.000000, 111.000000)" fill-rule="nonzero" fill="#2C4F6C">
                <g id="path41_fill-link" transform="translate(0.590000, 0.040000)">
                    <path d="M1.34277e-07,0.676376 L0.688602,1.96354 C1.1176,1.73614 1.54294,1.5029 1.9624,1.26311 L1.23127,1.77944e-06 C0.825734,0.231778 0.415067,0.45699 1.34277e-07,0.676376 Z" id="path41_fill"></path>
                </g>
            </g>
            <g id="Vector" transform="translate(92.000000, 109.000000)" fill-rule="nonzero" fill="#2C4F6C">
                <g id="path42_fill-link" transform="translate(0.020000, 0.560000)">
                    <path d="M-2.50651e-06,0.758741 L0.774397,1.99634 C1.18726,1.74124 1.59574,1.48031 1.99834,1.21136 L1.18287,1.06766e-06 C0.793469,0.259474 0.398931,0.511659 -2.50651e-06,0.758741 Z" id="path42_fill"></path>
                </g>
            </g>
            <g id="Vector" transform="translate(87.000000, 112.000000)" fill-rule="nonzero" fill="#2C4F6C">
                <g id="path43_fill-link" transform="translate(0.060000, 0.350000)">
                    <path d="M-4.47591e-08,0.593291 L0.599867,1.92345 C1.0428,1.72593 1.4828,1.52113 1.91767,1.30976 L1.2738,-7.5626e-07 C0.8536,0.204808 0.429,0.40233 -4.47591e-08,0.593291 Z" id="path43_fill"></path>
                </g>
            </g>
            <g id="Vector" transform="translate(85.000000, 35.000000)" fill-rule="nonzero" fill="#2C4F6C">
                <g id="path44_fill-link" transform="translate(0.950000, 0.240000)">
                    <path d="M1.94847,0.598391 C1.49014,0.390667 1.0274,0.191689 0.560998,-1.39018e-07 L-1.61133e-06,1.34693 C0.450998,1.53206 0.8976,1.7252 1.34127,1.92564 L1.94847,0.598391 Z" id="path44_fill"></path>
                </g>
            </g>
            <g id="Vector" transform="translate(88.000000, 36.000000)" fill-rule="nonzero" fill="#2C4F6C">
                <g id="path45_fill-link" transform="translate(0.610000, 0.490000)">
                    <path d="M1.99686,0.693871 C1.55393,0.454806 1.1066,0.223759 0.654869,-5.56074e-09 L-2.01416e-06,1.30465 C0.436331,1.5204 0.869002,1.74415 1.29654,1.9752 L1.99686,0.693871 Z" id="path45_fill"></path>
                </g>
            </g>
            <g id="Vector" transform="translate(77.000000, 32.000000)" fill-rule="nonzero" fill="#2C4F6C">
                <g id="path46_fill-link" transform="translate(0.550000, 0.700000)">
                    <path d="M1.7468,0.296645 C1.25473,0.189503 0.759736,0.0903783 0.262536,2.78037e-08 L1.43229e-06,1.43439 C0.480335,1.52112 0.958469,1.6166 1.43367,1.72083 L1.7468,0.296645 Z" id="path46_fill"></path>
                </g>
            </g>
            <g id="Vector" transform="translate(80.000000, 33.000000)" fill-rule="nonzero" fill="#2C4F6C">
                <g id="path47_fill-link" transform="translate(0.410000, 0.340000)">
                    <path d="M1.8238,0.399414 C1.34053,0.258744 0.854334,0.125363 0.364468,-1.00093e-07 L-2.23796e-07,1.41252 C0.473733,1.53351 0.943064,1.66179 1.40946,1.79809 L1.8238,0.399414 Z" id="path47_fill"></path>
                </g>
            </g>
            <g id="Vector" transform="translate(83.000000, 34.000000)" fill-rule="nonzero" fill="#2C4F6C">
                <g id="path48_fill-link" transform="translate(0.210000, 0.190000)">
                    <path d="M1.89053,0.500725 C1.41827,0.325799 0.943067,0.158891 0.463467,-1.27897e-07 L-2.46175e-06,1.38337 C0.462731,1.53643 0.922534,1.69751 1.37867,1.8666 L1.89053,0.500725 Z" id="path48_fill"></path>
                </g>
            </g>
            <g id="Vector" transform="translate(93.000000, 39.000000)" fill-rule="nonzero" fill="#2C4F6C">
                <g id="path49_fill-link" transform="translate(0.640000, 0.540000)">
                    <path d="M2.06213,0.872442 C1.6566,0.574339 1.24593,0.283525 0.830866,-2.89158e-07 L-2.77507e-06,1.20116 C0.401864,1.47521 0.797865,1.75654 1.1902,2.04444 L2.06213,0.872442 Z" id="path49_fill"></path>
                </g>
            </g>
            <g id="Vector" transform="translate(74.000000, 32.000000)" fill-rule="nonzero" fill="#2C4F6C">
                <g id="path50_fill-link" transform="translate(0.660000, 0.260000)">
                    <path d="M1.66393,0.192418 C1.16527,0.119532 0.665131,0.0553931 0.161331,-8.3411e-09 L2.46175e-06,1.44897 C0.486202,1.50217 0.969467,1.56413 1.45053,1.6341 L1.66393,0.192418 Z" id="path50_fill"></path>
                </g>
            </g>
            <g id="Vector" transform="translate(91.000000, 37.000000)" fill-rule="nonzero" fill="#2C4F6C">
                <g id="path51_fill-link" transform="translate(0.180000, 0.920000)">
                    <path d="M2.03427,0.785708 C1.60893,0.516031 1.1792,0.254371 0.744335,2.94719e-07 L2.37223e-06,1.25655 C0.420202,1.50217 0.835267,1.75509 1.24593,2.01529 L2.03427,0.785708 Z" id="path51_fill"></path>
                </g>
            </g>
            <g id="Vector" transform="translate(100.000000, 45.000000)" fill-rule="nonzero" fill="#2C4F6C">
                <g id="path52_fill-link" transform="translate(0.300000, 0.380000)">
                    <path d="M0.9878,2.0736 L2.0856,1.10713 C1.7512,0.731772 1.4102,0.362971 1.06333,2.55794e-07 L1.79036e-07,1.00437 C0.335134,1.35495 0.6644,1.71136 0.9878,2.0736 Z" id="path52_fill"></path>
                </g>
            </g>
            <g id="Vector" transform="translate(98.000000, 43.000000)" fill-rule="nonzero" fill="#2C4F6C">
                <g id="path53_fill-link" transform="translate(0.220000, 0.270000)">
                    <path d="M2.0878,1.03425 C1.72773,0.682939 1.3618,0.338189 0.989997,-1.00093e-07 L-1.52181e-06,1.07579 C0.359332,1.40232 0.712065,1.73541 1.05966,2.07433 L2.0878,1.03425 Z" id="path53_fill"></path>
                </g>
            </g>
            <g id="Vector" transform="translate(95.000000, 41.000000)" fill-rule="nonzero" fill="#2C4F6C">
                <g id="path54_fill-link" transform="translate(0.990000, 0.320000)">
                    <path d="M2.07973,0.955531 C1.6962,0.630461 1.3068,0.31195 0.913001,-5.33831e-07 L-6.26628e-07,1.14066 C0.381333,1.44168 0.756801,1.74926 1.12787,2.06412 L2.07973,0.955531 Z" id="path54_fill"></path>
                </g>
            </g>
            <g id="Vector" transform="translate(48.000000, 36.000000)" fill-rule="nonzero" fill="#2C4F6C">
                <g id="path55_fill-link" transform="translate(0.610000, 0.890000)">
                    <path d="M2.00787,1.29081 L1.3266,-7.78503e-08 C0.880001,0.232505 0.4378,0.473028 -2.68555e-07,0.72084 L0.726001,1.98759 C1.14913,1.7478 1.57667,1.51602 2.00787,1.29081 Z" id="path55_fill"></path>
                </g>
            </g>
            <g id="Vector" transform="translate(51.000000, 35.000000)" fill-rule="nonzero" fill="#2C4F6C">
                <g id="path56_fill-link" transform="translate(0.290000, 0.590000)">
                    <path d="M1.9624,1.33527 L1.37427,3.28083e-07 C0.911534,0.201165 0.453934,0.410346 4.47591e-07,0.626817 L0.635068,1.94095 C1.07287,1.73103 1.51507,1.52914 1.9624,1.33527 Z" id="path56_fill"></path>
                </g>
            </g>
            <g id="Vector" transform="translate(46.000000, 38.000000)" fill-rule="nonzero" fill="#2C4F6C">
                <g id="path57_fill-link" transform="translate(0.040000, 0.380000)">
                    <path d="M2.04307,1.24051 L1.27233,1.89065e-07 C0.843334,0.263117 0.418733,0.533523 1.56657e-07,0.811218 L0.813268,2.02404 C1.2188,1.75582 1.62873,1.49489 2.04307,1.24051 Z" id="path57_fill"></path>
                </g>
            </g>
            <g id="Vector" transform="translate(43.000000, 40.000000)" fill-rule="nonzero" fill="#2C4F6C">
                <g id="path58_fill-link" transform="translate(0.580000, 0.050000)">
                    <path d="M2.068,1.18366 L1.2122,-3.22523e-07 C0.803,0.292271 0.398934,0.591103 4.69971e-07,0.897223 L0.896134,2.051 C1.28187,1.75509 1.67273,1.46573 2.068,1.18366 Z" id="path58_fill"></path>
                </g>
            </g>
            <g id="Vector" transform="translate(54.000000, 34.000000)" fill-rule="nonzero" fill="#2C4F6C">
                <g id="path59_fill-link" transform="translate(0.060000, 0.480000)">
                    <path d="M1.90813,1.37317 L1.4146,-5.56074e-09 C0.939399,0.168366 0.467868,0.344749 1.16374e-06,0.52915 L0.540468,1.88409 C0.992934,1.70698 1.44833,1.53643 1.90813,1.37317 Z" id="path59_fill"></path>
                </g>
            </g>
            <g id="Vector" transform="translate(71.000000, 32.000000)" fill-rule="nonzero" fill="#2C4F6C">
                <g id="path60_fill-link" transform="translate(0.750000, 0.040000)">
                    <path d="M1.56934,0.0874628 C1.06847,0.0495623 0.565397,0.0204081 0.0601306,8.61914e-08 L2.37223e-06,1.45626 C0.488402,1.47593 0.974601,1.50436 1.4586,1.5408 L1.56934,0.0874628 Z" id="path60_fill"></path>
                </g>
            </g>
            <g id="Vector" transform="translate(65.000000, 32.000000)" fill-rule="nonzero" fill="#2C4F6C">
                <g id="path61_fill-link" transform="translate(0.770000, 0.080000)">
                    <path d="M1.59647,1.4548 L1.50553,-1.66822e-07 C1.001,0.0306118 0.499401,0.070699 8.50423e-07,0.119532 L0.141532,1.56996 C0.624065,1.52331 1.10953,1.48468 1.59647,1.4548 Z" id="path61_fill"></path>
                </g>
            </g>
            <g id="Vector" transform="translate(56.000000, 33.000000)" fill-rule="nonzero" fill="#2C4F6C">
                <g id="path62_fill-link" transform="translate(0.910000, 0.580000)">
                    <path d="M1.84287,1.40378 L1.44833,1.30677e-07 C0.962133,0.134839 0.479601,0.277694 7.38525e-07,0.428568 L0.442934,1.81777 C0.905667,1.67273 1.3728,1.53497 1.84287,1.40378 Z" id="path62_fill"></path>
                </g>
            </g>
            <g id="Vector" transform="translate(68.000000, 32.000000)" fill-rule="nonzero" fill="#2C4F6C">
                <g id="path63_fill-link" transform="translate(0.790000, 0.000000)">
                    <path d="M1.2144,1.45771 L1.50113,1.45844 L1.51213,0.000728804 L1.2144,0 C0.808133,0 0.404068,0.00510182 1.29801e-06,0.0167635 L0.0410678,1.47375 C0.431201,1.46282 0.822067,1.45771 1.2144,1.45771 Z" id="path63_fill"></path>
                </g>
            </g>
            <g id="Vector" transform="translate(62.000000, 32.000000)" fill-rule="nonzero" fill="#2C4F6C">
                <g id="path64_fill-link" transform="translate(0.780000, 0.370000)">
                    <path d="M1.68813,1.44459 L1.49453,8.3411e-09 C0.993667,0.066326 0.495732,0.140669 -1.27563e-06,0.22303 L0.243466,1.66106 C0.723066,1.58016 1.20413,1.50873 1.68813,1.44459 Z" id="path64_fill"></path>
                </g>
            </g>
            <g id="Vector" transform="translate(59.000000, 32.000000)" fill-rule="nonzero" fill="#2C4F6C">
                <g id="path65_fill-link" transform="translate(0.820000, 0.870000)">
                    <path d="M1.7688,1.42783 L1.47547,1.25117e-07 C0.980467,0.100582 0.488399,0.209911 -7.60905e-07,0.326528 L0.344667,1.74343 C0.8162,1.63045 1.29067,1.5255 1.7688,1.42783 Z" id="path65_fill"></path>
                </g>
            </g>
        </g>
    </g>
</svg>