<?xml version="1.0" encoding="UTF-8"?>
<svg width="144px" height="144px" viewBox="0 0 144 144" version="1.1" xmlns="http://www.w3.org/2000/svg" xmlns:xlink="http://www.w3.org/1999/xlink">
    <!-- Generator: Sketch 46.1 (44463) - http://www.bohemiancoding.com/sketch -->
    <title>chooseMentor</title>
    <desc>Created with Sketch.</desc>
    <defs></defs>
    <g id="icons" stroke="none" stroke-width="1" fill="none" fill-rule="evenodd">
        <g id="chooseMentor">
            <circle id="Oval" fill="#FFFFFF" cx="72" cy="72" r="72"></circle>
            <path d="M105.0508,63.4064 L103.7116,63.4064 C104.1314,62.8525 104.3898,62.1703 104.3898,61.4233 C104.3898,60.6784 104.1327,59.9975 103.7156,59.4442 C107.3657,57.5048 109.678,53.7112 109.678,49.5249 C109.678,43.3285 104.637,38.28756 98.4407,38.28756 C93.7098,38.28756 89.6604,41.23042 88.0059,45.3783 C87.253,42.4434 85.6983,39.76891 83.4482,37.60736 C80.1755,34.46288 75.8577,32.834783 71.3218,33.0132592 C64.0063,33.305431 57.7994,38.52156 56.0021,45.4021 C54.3542,41.24166 50.2995,38.28756 45.5593,38.28756 C39.36295,38.28756 34.32203,43.3285 34.32203,49.5249 C34.32203,53.7112 36.63427,57.5048 40.28441,59.4442 C39.86731,59.9975 39.61017,60.6784 39.61017,61.4233 C39.61017,62.1703 39.86863,62.8525 40.28837,63.4064 L38.94915,63.4064 C35.66853,63.4064 33,66.0749 33,69.3556 L33,78.6099 C33,78.9755 33.295475,79.2709 33.661017,79.2709 L38.28814,79.2709 L38.28814,95.7965 C38.28814,96.162 38.58361,96.4575 38.94915,96.4575 L45.5593,96.4575 L52.1695,96.4575 C52.535,96.4575 52.8305,96.162 52.8305,95.7965 L52.8305,79.2709 L57.4576,79.2709 C57.8232,79.2709 58.1186,78.9755 58.1186,78.6099 L58.1186,69.3556 C58.1186,66.0749 55.4501,63.4064 52.1695,63.4064 L50.8303,63.4064 C51.25,62.8525 51.5085,62.1703 51.5085,61.4233 C51.5085,60.6784 51.2513,59.9975 50.8342,59.4442 C53.2265,58.1731 55.0423,56.1061 56.0107,53.653 C57.0775,57.7785 59.7097,61.3969 63.4835,63.6695 C64.9126,64.5301 65.8261,65.9117 66.0118,67.4505 C64.5252,67.7738 63.4068,69.0958 63.4068,70.6776 C63.4068,71.7624 63.9396,72.7189 64.7493,73.3217 C63.9396,73.9246 63.4068,74.8811 63.4068,75.9658 C63.4068,76.7696 63.7069,77.4981 64.1861,78.0718 C61.4806,78.6297 59.4407,81.0299 59.4407,83.8981 L59.4407,93.1524 C59.4407,93.5179 59.7362,93.8134 60.1017,93.8134 L64.7288,93.8134 L64.7288,110.339 C64.7288,110.7045 65.0243,111 65.3898,111 L72,111 L78.6102,111 C78.9757,111 79.2712,110.7045 79.2712,110.339 L79.2712,93.8134 L83.8983,93.8134 C84.2638,93.8134 84.5593,93.5179 84.5593,93.1524 L84.5593,83.8981 C84.5593,81.0299 82.5194,78.6297 79.8139,78.0718 C80.2931,77.4981 80.5932,76.7696 80.5932,75.9658 C80.5932,74.8811 80.0604,73.9246 79.2507,73.3217 C80.0604,72.7189 80.5932,71.7624 80.5932,70.6776 C80.5932,69.0958 79.4748,67.7731 77.9875,67.4505 C78.1699,65.917 79.0795,64.5334 80.5073,63.6754 C84.3022,61.3936 86.9383,57.8135 88.0006,53.6788 C88.971,56.1206 90.7821,58.1777 93.1658,59.4442 C92.7487,59.9975 92.4915,60.6784 92.4915,61.4233 C92.4915,62.1703 92.75,62.8525 93.1697,63.4064 L91.8305,63.4064 C88.5499,63.4064 85.8814,66.0749 85.8814,69.3556 L85.8814,78.6099 C85.8814,78.9755 86.1768,79.2709 86.5424,79.2709 L91.1695,79.2709 L91.1695,95.7965 C91.1695,96.162 91.465,96.4575 91.8305,96.4575 L98.4407,96.4575 L105.0508,96.4575 C105.4164,96.4575 105.7119,96.162 105.7119,95.7965 L105.7119,79.2709 L110.339,79.2709 C110.7045,79.2709 111,78.9755 111,78.6099 L111,69.3556 C111,66.0749 108.3315,63.4064 105.0508,63.4064 Z M56.7966,69.3556 L56.7966,77.9489 L52.8305,77.9489 L52.8305,69.3556 L51.5085,69.3556 L51.5085,95.1355 L46.2203,95.1355 L46.2203,79.932 L44.8983,79.932 L44.8983,95.1355 L39.61017,95.1355 L39.61017,69.3556 L38.28814,69.3556 L38.28814,77.9489 L34.32203,77.9489 L34.32203,69.3556 C34.32203,66.8047 36.39829,64.7284 38.94915,64.7284 L42.91525,64.7284 L48.2034,64.7284 L52.1695,64.7284 C54.7204,64.7284 56.7966,66.8047 56.7966,69.3556 Z M42.91525,63.4064 C41.82193,63.4064 40.9322,62.5167 40.9322,61.4233 C40.9322,60.7491 41.27131,60.1548 41.7869,59.7966 C41.82656,59.7688 41.86953,59.7476 41.91117,59.7232 C41.97,59.6882 42.02949,59.6538 42.09229,59.6247 C42.13591,59.6042 42.18086,59.5877 42.22647,59.5711 C42.29654,59.5447 42.36793,59.5222 42.44131,59.5044 C42.48097,59.4945 42.52063,59.4839 42.56095,59.4766 C42.67597,59.4548 42.79363,59.4403 42.91525,59.4403 L48.2034,59.4403 C48.325,59.4403 48.4427,59.4548 48.5584,59.476 C48.5987,59.4832 48.6383,59.4938 48.678,59.5037 C48.7514,59.5222 48.8228,59.5447 48.8928,59.5705 C48.9378,59.5877 48.9827,59.6042 49.027,59.624 C49.0898,59.6531 49.1493,59.6875 49.2081,59.7225 C49.2498,59.747 49.2921,59.7681 49.3324,59.7959 C49.8473,60.1548 50.1864,60.7491 50.1864,61.4233 C50.1864,62.5167 49.2967,63.4064 48.2034,63.4064 L42.91525,63.4064 Z M49.7574,58.5089 C49.6966,58.4765 49.6332,58.4514 49.5704,58.423 C49.5274,58.4031 49.4864,58.382 49.4428,58.3641 C49.2729,58.2947 49.0977,58.2412 48.9193,58.2015 C48.8783,58.1923 48.8373,58.1856 48.7957,58.1784 C48.6013,58.1427 48.4037,58.1182 48.2034,58.1182 L46.2203,58.1182 L46.2203,51.1206 L49.9928,47.3482 L49.0581,46.4135 L45.5593,49.9123 L42.06056,46.4135 L41.12588,47.3482 L44.8983,51.1206 L44.8983,58.1182 L42.91525,58.1182 C42.71497,58.1182 42.51732,58.1427 42.32298,58.1784 C42.28134,58.1856 42.24036,58.1923 42.19937,58.2015 C42.0209,58.2412 41.84573,58.2954 41.67585,58.3641 C41.63222,58.382 41.59124,58.4031 41.54827,58.423 C41.48614,58.4514 41.42202,58.4765 41.3612,58.5089 C37.87698,56.8808 35.64407,53.3906 35.64407,49.5249 C35.64407,44.0576 40.09205,39.6096 45.5593,39.6096 C51.0266,39.6096 55.4746,44.0576 55.4746,49.5249 C55.4746,53.3906 53.2417,56.8808 49.7574,58.5089 Z M83.2373,83.8981 L83.2373,92.4914 L79.2712,92.4914 L79.2712,83.8981 L77.9492,83.8981 L77.9492,109.678 L72.661,109.678 L72.661,94.4744 L71.339,94.4744 L71.339,109.678 L66.0508,109.678 L66.0508,83.8981 L64.7288,83.8981 L64.7288,92.4914 L60.7627,92.4914 L60.7627,83.8981 C60.7627,81.3472 62.839,79.2709 65.3898,79.2709 L66.7119,79.2709 L67.6598,79.2709 L71.4335,85.5606 C71.5525,85.7589 71.7673,85.8812 72,85.8812 C72.2327,85.8812 72.4475,85.7589 72.5665,85.5606 L76.3402,79.2709 L77.2881,79.2709 L78.6102,79.2709 C81.161,79.2709 83.2373,81.3472 83.2373,83.8981 Z M69.2013,79.2709 L74.7987,79.2709 L72,83.9358 L69.2013,79.2709 Z M79.2712,75.9658 C79.2712,77.0592 78.3815,77.9489 77.2881,77.9489 L66.7119,77.9489 C65.6185,77.9489 64.7288,77.0592 64.7288,75.9658 C64.7288,74.8725 65.6185,73.9828 66.7119,73.9828 L77.2881,73.9828 C78.3815,73.9828 79.2712,74.8725 79.2712,75.9658 Z M79.2712,70.6776 C79.2712,71.771 78.3815,72.6607 77.2881,72.6607 L66.7119,72.6607 C65.6185,72.6607 64.7288,71.771 64.7288,70.6776 C64.7288,69.5843 65.6185,68.6946 66.7119,68.6946 L77.2881,68.6946 C78.3815,68.6946 79.2712,69.5843 79.2712,70.6776 Z M68.6949,48.8639 L66.7119,48.8639 C65.6185,48.8639 64.7288,47.9742 64.7288,46.8808 C64.7288,45.7875 65.6185,44.8978 66.7119,44.8978 C67.8052,44.8978 68.6949,45.7875 68.6949,46.8808 L68.6949,48.8639 Z M70.0169,50.186 L73.9831,50.186 L73.9831,67.3725 L70.0169,67.3725 L70.0169,50.186 Z M79.8258,62.5418 C78.0219,63.6272 76.8724,65.3948 76.6622,67.3725 L75.3051,67.3725 L75.3051,50.186 L77.2881,50.186 C79.1106,50.186 80.5932,48.7033 80.5932,46.8808 C80.5932,45.0584 79.1106,43.5757 77.2881,43.5757 C75.4657,43.5757 73.9831,45.0584 73.9831,46.8808 L73.9831,48.8639 L70.0169,48.8639 L70.0169,46.8808 C70.0169,45.0584 68.5343,43.5757 66.7119,43.5757 C64.8894,43.5757 63.4068,45.0584 63.4068,46.8808 C63.4068,48.7033 64.8894,50.186 66.7119,50.186 L68.6949,50.186 L68.6949,67.3725 L67.3385,67.3725 C67.1303,65.4033 65.9762,63.6285 64.1643,62.5378 C59.3257,59.6234 56.5117,54.3101 56.8197,48.6716 C57.2421,40.94156 63.6355,34.64334 71.3753,34.33398 C75.5629,34.16674 79.5217,35.66859 82.5326,38.56122 C85.5442,41.45451 87.2034,45.3486 87.2034,49.5249 C87.2034,54.8984 84.4456,59.7648 79.8258,62.5418 Z M75.3051,48.8639 L75.3051,46.8808 C75.3051,45.7875 76.1948,44.8978 77.2881,44.8978 C78.3815,44.8978 79.2712,45.7875 79.2712,46.8808 C79.2712,47.9742 78.3815,48.8639 77.2881,48.8639 L75.3051,48.8639 Z M88.5254,49.5249 C88.5254,44.0576 92.9734,39.6096 98.4407,39.6096 C103.908,39.6096 108.3559,44.0576 108.3559,49.5249 C108.3559,53.3906 106.123,56.8808 102.6388,58.5089 C102.578,58.4765 102.5145,58.4514 102.4517,58.423 C102.4088,58.4031 102.3678,58.382 102.3242,58.3641 C102.1543,58.2947 101.9791,58.2412 101.8006,58.2015 C101.7596,58.1923 101.7187,58.1856 101.677,58.1784 C101.4827,58.1427 101.285,58.1182 101.0847,58.1182 L99.1017,58.1182 L99.1017,51.1206 L102.8741,47.3482 L101.9394,46.4135 L98.4407,49.9123 L94.9419,46.4135 L94.0072,47.3482 L97.7797,51.1206 L97.7797,58.1182 L95.7966,58.1182 C95.5963,58.1182 95.3987,58.1427 95.2043,58.1784 C95.1627,58.1856 95.1217,58.1923 95.0807,58.2015 C94.9023,58.2412 94.7271,58.2954 94.5572,58.3641 C94.5136,58.382 94.4726,58.4031 94.4296,58.423 C94.3675,58.4514 94.3034,58.4765 94.2426,58.5089 C90.7583,56.8808 88.5254,53.3906 88.5254,49.5249 Z M93.8136,61.4233 C93.8136,60.7491 94.1527,60.1548 94.6683,59.7966 C94.7079,59.7688 94.7509,59.7476 94.7925,59.7232 C94.8514,59.6882 94.9108,59.6538 94.9736,59.6247 C95.0173,59.6042 95.0622,59.5877 95.1078,59.5711 C95.1779,59.5447 95.2493,59.5222 95.3227,59.5044 C95.3623,59.4945 95.402,59.4839 95.4423,59.4766 C95.5573,59.4548 95.675,59.4403 95.7966,59.4403 L101.0847,59.4403 C101.2064,59.4403 101.324,59.4548 101.4397,59.476 C101.48,59.4832 101.5197,59.4938 101.5594,59.5037 C101.6327,59.5222 101.7041,59.5447 101.7742,59.5705 C101.8191,59.5877 101.8641,59.6042 101.9084,59.624 C101.9712,59.6531 102.0307,59.6875 102.0895,59.7225 C102.1311,59.747 102.1734,59.7681 102.2138,59.7959 C102.7287,60.1548 103.0678,60.7491 103.0678,61.4233 C103.0678,62.5167 102.1781,63.4064 101.0847,63.4064 L95.7966,63.4064 C94.7033,63.4064 93.8136,62.5167 93.8136,61.4233 Z M109.678,77.9489 L105.7119,77.9489 L105.7119,69.3556 L104.3898,69.3556 L104.3898,95.1355 L99.1017,95.1355 L99.1017,79.932 L97.7797,79.932 L97.7797,95.1355 L92.4915,95.1355 L92.4915,69.3556 L91.1695,69.3556 L91.1695,77.9489 L87.2034,77.9489 L87.2034,69.3556 C87.2034,66.8047 89.2796,64.7284 91.8305,64.7284 L95.7966,64.7284 L101.0847,64.7284 L105.0508,64.7284 C107.6017,64.7284 109.678,66.8047 109.678,69.3556 L109.678,77.9489 Z" id="path0_fill" fill="#2C4F6C" fill-rule="nonzero"></path>
        </g>
    </g>
</svg>