<?xml version="1.0" encoding="UTF-8"?>
<svg width="92px" height="119px" viewBox="0 0 92 119" version="1.1" xmlns="http://www.w3.org/2000/svg" xmlns:xlink="http://www.w3.org/1999/xlink">
    <!-- Generator: Sketch 46.1 (44463) - http://www.bohemiancoding.com/sketch -->
    <title>Chat</title>
    <desc>Created with Sketch.</desc>
    <defs></defs>
    <g id="icons" stroke="none" stroke-width="1" fill="none" fill-rule="evenodd">
        <g id="Chat" transform="translate(2.000000, 1.000000)" stroke="#2C4F6C" stroke-width="3">
            <path d="M72.4822876,49.0608241 L72.9092118,49.0608241 C81.1939806,49.0608241 87.9101127,42.3419139 87.9101127,34.0694808 L87.9101127,15.7305761 C87.9101127,7.45108578 81.1925648,0.739232727 72.9092118,0.739232727 L42.3042718,0.739232727 C34.019503,0.739232727 27.3033709,7.45814297 27.3033709,15.7305761 L27.3033709,34.0694808 C27.3033709,42.3489711 34.0209188,49.0608241 42.3042718,49.0608241 L60.9347525,49.0608241 L66.7085201,55.6031735 L72.4822876,49.0608241 Z" id="Oval-75"></path>
            <path d="M27.8834906,107.486576 L45.6058409,107.486576 C53.8906097,107.486576 60.6067418,100.767666 60.6067418,92.4952326 L60.6067418,74.1563279 C60.6067418,65.8768376 53.8891939,59.1649845 45.6058409,59.1649845 L15.0009009,59.1649845 C6.7161321,59.1649845 0,65.8838948 0,74.1563279 L0,92.4952326 C0,100.737746 6.65767961,107.426593 14.8900126,107.486175 L21.3869286,114.847935 L27.8834906,107.486576 Z" id="Oval-76"></path>
            <path d="M33.9696382,74 C31.2249828,74 29,76.1696391 29,78.8460246 C29,86.846946 38.9392765,91.9920792 38.9392765,91.9920792 C38.9392765,91.9920792 48.8785524,86.9172585 48.8785529,78.8460246 C48.8785531,76.1696391 46.6535701,74 43.9089147,74 C41.4452387,74 38.8711436,76.4053654 38.8711436,76.4053654 C38.8711436,76.4053654 36.4332995,74 33.9696382,74 Z" id="Oval-110"></path>
        </g>
    </g>
</svg>