<?xml version="1.0" encoding="UTF-8"?>
<svg width="144px" height="144px" viewBox="0 0 144 144" version="1.1" xmlns="http://www.w3.org/2000/svg" xmlns:xlink="http://www.w3.org/1999/xlink">
    <!-- Generator: Sketch 46.1 (44463) - http://www.bohemiancoding.com/sketch -->
    <title>getCoached</title>
    <desc>Created with Sketch.</desc>
    <defs></defs>
    <g id="icons" stroke="none" stroke-width="1" fill="none" fill-rule="evenodd">
        <g id="getCoached">
            <circle id="Oval" fill="#FFFFFF" cx="72" cy="72" r="72"></circle>
            <g id="Vector" transform="translate(29.000000, 28.000000)" fill-rule="nonzero" fill="#2C4F6C">
                <g id="path0_fill-link">
                    <path d="M86.0649,54.1008 L81.8604,41.4946 L80.3982,35.6459 L80.0173,35.7409 C81.0686,34.278 81.5073,32.4152 81.1447,30.6028 C79.7227,23.4922 75.9174,17.0111 70.4181,12.2933 C71.1916,11.0578 71.6463,9.60363 71.6463,8.04202 C71.6463,3.60794 68.0384,-5.19472e-15 63.6043,-5.19472e-15 C59.1702,-5.19472e-15 55.563,3.60794 55.563,8.04202 C55.563,11.6653 57.9727,14.7344 61.2729,15.7368 L58.5897,25.1291 L50.0404,30.8287 C50.014,30.8463 49.998,30.8718 49.9753,30.8923 C49.9614,30.904 49.9424,30.9069 49.9292,30.9201 L41.3696,39.479 L33.2494,39.479 C34.4001,38.0877 35.0924,36.3039 35.0924,34.3613 C35.0924,29.9273 31.4845,26.3193 27.0504,26.3193 C22.6163,26.3193 19.0084,29.9273 19.0084,34.3613 C19.0084,36.7864 20.0919,38.9585 21.7946,40.4345 L17.449,51.7328 C16.7018,53.6753 16.9036,55.8028 18.0032,57.5699 C18.3102,58.0626 18.6772,58.4998 19.0866,58.8858 L14.7732,66.0754 L7.52587,73.3227 C7.24001,73.6086 7.24001,74.0706 7.52587,74.3565 L11.9124,78.743 C12.0543,78.8863 12.2414,78.958 12.4286,78.958 C12.6157,78.958 12.8029,78.8863 12.9455,78.7438 L21.7186,69.9707 C21.7529,69.9363 21.7829,69.899 21.8099,69.8595 L27.6587,61.0864 L27.6331,61.0689 L30.7059,61.3482 L30.7059,68.7227 L28.5126,68.7227 C28.2823,68.7227 28.0659,68.8309 27.9277,69.0151 L19.3155,80.4984 L0.566597,84.825 C0.234681,84.9018 0,85.1971 0,85.5378 L0,87 L1.46218,87 L1.46218,86.1198 L19.9047,81.8641 C20.0721,81.8246 20.222,81.7281 20.3251,81.5899 L28.8782,70.1849 L31.437,70.1849 L38.7479,70.1849 L43.1345,70.1849 C43.3421,70.1849 43.5395,70.0971 43.6777,69.9429 L56.6195,55.563 L59.2185,55.563 L67.9916,55.563 L78.2269,55.563 L85.5378,55.563 L87,55.563 L87,54.1008 L86.0649,54.1008 Z M57.0252,8.04202 C57.0252,4.41434 59.9774,1.46218 63.605,1.46218 C67.2327,1.46218 70.1849,4.41434 70.1849,8.04202 C70.1849,11.6697 67.2327,14.6218 63.605,14.6218 C59.9774,14.6218 57.0252,11.6697 57.0252,8.04202 Z M20.4706,34.3613 C20.4706,30.7337 23.4227,27.7815 27.0504,27.7815 C30.6781,27.7815 33.6303,30.7337 33.6303,34.3613 C33.6303,37.989 30.6781,40.9412 27.0504,40.9412 C23.4227,40.9412 20.4706,37.989 20.4706,34.3613 Z M20.6336,68.9881 L12.4286,77.1931 L9.07578,73.8403 L15.8698,67.0463 C15.9122,67.0039 15.9488,66.9564 15.9795,66.9059 L20.2615,59.7697 C21.0825,60.2508 22.0081,60.5578 22.9943,60.6478 L26.0108,60.9219 L20.6336,68.9881 Z M32.1681,68.7227 L32.1681,60.6807 C32.1681,60.3027 31.8793,59.9869 31.5028,59.9525 L23.1266,59.1907 C21.5146,59.0445 20.0992,58.1716 19.2445,56.7971 C18.3899,55.4227 18.2327,53.7675 18.8139,52.257 L23.0236,41.3111 C24.2094,42.0013 25.5824,42.4034 27.0504,42.4034 C28.7656,42.4034 30.3528,41.8594 31.66,40.9412 L41.6723,40.9412 C41.866,40.9412 42.0524,40.8644 42.1892,40.727 L50.2451,32.6711 L52.499,37.1782 L44.2347,46.8199 L28.4468,48.255 L28.5791,49.7114 L30.4814,49.5381 L29.2817,53.138 C29.2145,53.3412 29.2386,53.5635 29.349,53.7463 C29.4594,53.9298 29.6443,54.0555 29.8549,54.0906 L36.1847,55.1456 C37.2462,55.3225 38.0168,56.2327 38.0168,57.3096 L38.0168,68.7227 L32.1681,68.7227 Z M56.2941,54.1008 C56.0865,54.1008 55.8891,54.1886 55.7509,54.3428 L42.8091,68.7227 L39.479,68.7227 L39.479,57.3096 C39.479,55.5148 38.1945,53.9985 36.4245,53.7039 L30.9391,52.79 L32.0708,49.3948 L44.6624,48.2499 C44.8525,48.2324 45.028,48.1424 45.1515,47.9977 L53.8523,37.8465 L65.4547,30.5948 C65.5688,30.5231 65.6609,30.4222 65.7215,30.3016 L66.2998,29.145 L67.1947,32.7252 L61.5726,39.7532 C61.4995,39.8445 61.4498,39.9513 61.4264,40.0661 L58.619,54.1008 L56.2941,54.1008 Z M60.1104,54.1008 L62.825,40.5281 L68.5626,33.3561 C68.7051,33.1777 68.7563,32.9438 68.7008,32.7222 L67.3044,27.136 L68.6459,24.4536 L67.338,23.7993 L64.5058,29.4645 L53.6644,36.2403 L51.3878,31.6877 L59.6235,26.1972 C59.7675,26.1007 59.8735,25.9567 59.9211,25.79 L62.7095,16.0321 C63.0041,16.0636 63.3024,16.084 63.605,16.084 C65.9519,16.084 68.0596,15.0678 69.5313,13.4594 C74.7484,17.96 78.3585,24.1268 79.7117,30.8908 C80.0956,32.8122 79.3308,34.8132 77.7641,35.9888 L69.0151,42.5496 C68.8565,42.6687 68.7534,42.8471 68.7285,43.0438 L67.346,54.1008 L60.1104,54.1008 Z M73.2876,41.1729 L74.586,47.6643 C74.5948,47.7082 74.6073,47.7506 74.6241,47.7922 L77.1471,54.1008 L68.8199,54.1008 L70.141,43.5329 L73.2876,41.1729 Z M78.7218,54.1008 L76.0058,47.3119 L74.5839,40.2006 L78.6414,37.1578 C78.8257,37.0196 78.9909,36.8639 79.1568,36.7096 L80.4575,41.904 L84.5238,54.1008 L78.7218,54.1008 Z" id="path0_fill"></path>
                </g>
            </g>
            <g id="Vector" transform="translate(29.000000, 28.000000)" fill-rule="nonzero" fill="#2C4F6C">
                <g id="path1_fill-link">
                    <path d="M0.731092,11.6975 L28.5126,11.6975 C28.9162,11.6975 29.2437,11.37 29.2437,10.9664 C29.2437,6.53231 25.6358,2.92437 21.2017,2.92437 C20.4048,2.92437 19.5991,3.05377 18.8008,3.30892 C16.7391,1.20045 13.912,0 10.9664,0 C4.91952,0 0,4.91952 0,10.9664 C0,11.37 0.327529,11.6975 0.731092,11.6975 Z M10.9664,1.46218 C13.6597,1.46218 16.2405,2.6217 18.0477,4.6439 C18.2495,4.87054 18.5727,4.94877 18.8549,4.8391 C19.6379,4.53862 20.4275,4.38655 21.2017,4.38655 C24.583,4.38655 27.3765,6.94976 27.7413,10.2353 L1.48997,10.2353 C1.86429,5.33478 5.97156,1.46218 10.9664,1.46218 Z" id="path1_fill"></path>
                </g>
            </g>
            <g id="Vector" transform="translate(51.000000, 44.000000)" fill-rule="nonzero" fill="#2C4F6C">
                <g id="path2_fill-link" transform="translate(0.660000, 0.080000)">
                    <polygon id="path2_fill" points="1.46218 0 0 0 0 1.46218 1.46218 1.46218"></polygon>
                </g>
            </g>
            <g id="Vector" transform="translate(57.000000, 44.000000)" fill-rule="nonzero" fill="#2C4F6C">
                <g id="path2_fill-link" transform="translate(0.510000, 0.080000)">
                    <polygon id="path2_fill" points="1.46218 0 0 0 0 1.46218 1.46218 1.46218"></polygon>
                </g>
            </g>
            <g id="Vector" transform="translate(63.000000, 44.000000)" fill-rule="nonzero" fill="#2C4F6C">
                <g id="path2_fill-link" transform="translate(0.360000, 0.080000)">
                    <polygon id="path2_fill" points="1.46218 0 0 0 0 1.46218 1.46218 1.46218"></polygon>
                </g>
            </g>
        </g>
    </g>
</svg>