<?xml version="1.0" encoding="UTF-8"?>
<svg width="120px" height="118px" viewBox="0 0 120 118" version="1.1" xmlns="http://www.w3.org/2000/svg" xmlns:xlink="http://www.w3.org/1999/xlink">
    <!-- Generator: Sketch 46.1 (44463) - http://www.bohemiancoding.com/sketch -->
    <title>Free-56-25-web-seo-internet-user-rating</title>
    <desc>Created with Sketch.</desc>
    <defs></defs>
    <g id="icons" stroke="none" stroke-width="1" fill="none" fill-rule="evenodd" stroke-linecap="round" stroke-linejoin="round">
        <g id="Free-56-25-web-seo-internet-user-rating" transform="translate(2.000000, 2.000000)" stroke-width="3.5" stroke="#2C4F6C">
            <polygon id="Layer-1" points="14.67832 86.64 19.1254545 95.766125 29.3566399 97.0905502 21.8735605 104.055118 23.7501139 114 14.67832 109.178138 5.60652599 114 7.48307941 104.055118 0 97.0905502 10.2311855 95.766125"></polygon>
            <polygon id="Layer-2" points="57.96832 86.64 62.4154545 95.766125 72.6466399 97.0905502 65.1635605 104.055118 67.0401139 114 57.96832 109.178138 48.896526 114 50.7730794 104.055118 43.29 97.0905502 53.5211855 95.766125"></polygon>
            <polygon id="Layer-3" points="101.25832 86.64 105.705454 95.766125 115.93664 97.0905502 108.453561 104.055118 110.330114 114 101.25832 109.178138 92.186526 114 94.0630794 104.055118 86.58 97.0905502 96.8111855 95.766125"></polygon>
            <path d="M84.2213989,72.62847 C93.5254039,65.1005464 99.45,53.7444144 99.45,41.04 C99.45,18.3742339 80.5922337,0 57.33,0 C34.0677663,0 15.21,18.3742339 15.21,41.04 C15.21,53.7434036 21.1336533,65.0987393 30.4363803,72.626673 C37.6733998,66.6990699 47.9726549,64.6097389 48.7496401,62.7619762 C49.9307365,59.9531893 49.9307365,58.6451715 49.9307365,55.2783626 C49.9307365,51.9115538 45.523409,46.1222323 45.523409,46.1222323 C45.523409,46.1222323 42.7062282,44.89863 41.9142121,41.7634998 C41.3816532,39.6554096 42.5588135,37.2527218 43.1836797,36.8699263 C41.5134034,31.7996715 38.1775025,14.3200917 57.2636079,13.6863759 C57.3470561,13.6839257 57.4309328,13.6817996 57.5152447,13.6937101 C76.4824975,14.3237075 73.1465966,31.8032874 71.4763203,36.8735421 C72.1011865,37.2563376 73.2783468,39.6590254 72.7457879,41.7671156 C71.9537718,44.9022458 69.136591,46.1258481 69.136591,46.1258481 C69.136591,46.1258481 64.7292635,51.9151696 64.7292635,55.2819785 C64.7292635,58.6487873 64.7292635,59.9568051 65.9103599,62.7655921 C66.6872656,64.6131657 76.9844934,66.7022583 84.2213989,72.62847 L84.2213989,72.62847 Z" id="Layer-4"></path>
        </g>
    </g>
</svg>