<?xml version="1.0" encoding="UTF-8"?>
<svg width="110px" height="114px" viewBox="0 0 110 114" version="1.1" xmlns="http://www.w3.org/2000/svg" xmlns:xlink="http://www.w3.org/1999/xlink">
    <!-- Generator: Sketch 46.1 (44463) - http://www.bohemiancoding.com/sketch -->
    <title>makePlan</title>
    <desc>Created with Sketch.</desc>
    <defs></defs>
    <g id="icons" stroke="none" stroke-width="1" fill="none" fill-rule="evenodd">
        <g id="makePlan" fill="#09294A">
            <path d="M0,15.2 L0,22.8 L0,30.4 L0,106.4 L7.84615385,114 L94.1538462,114 L102,106.4 L102,53.2 L94.1538462,60.8 L94.1538462,106.4 L7.84615385,106.4 L7.84615385,30.4 L23.5384615,30.4 L23.5384615,22.8 L7.84615385,22.8 L7.84615385,15.2 L23.5384615,15.2 L23.5384615,7.6 L7.84615385,7.6 L0,15.2 L0,15.2 Z M31.3846154,30.4 L47.0769231,30.4 L54.9230769,22.8 L62.7692308,15.2 L70.6153846,7.6 L70.6153846,0 L31.3846154,0 L31.3846154,7.6 L31.3846154,15.2 L31.3846154,22.8 L31.3846154,30.4 L31.3846154,30.4 Z M47.0769231,7.6 L51,7.6 L54.9230769,7.6 L54.9230769,11.4 L54.9230769,15.2 L51,15.2 L47.0769231,15.2 L47.0769231,11.4 L47.0769231,7.6 L47.0769231,7.6 Z" id="Shape"></path>
            <path d="M22.9166667,76.25 L38.75,91.4166667 L94.1666667,38.3333333 L78.3333333,23.1666667 L22.9166667,76.25 L22.9166667,76.25 Z M102.083333,30.75 L110,23.1666667 L110,15.5833333 L102.083333,8 L94.1666667,8 L86.25,15.5833333 L102.083333,30.75 L102.083333,30.75 Z M22.9166667,83.8333333 L15,99 L30.8333333,91.4166667 L22.9166667,83.8333333 L22.9166667,83.8333333 Z" id="Shape"></path>
        </g>
    </g>
</svg>