<?xml version="1.0" encoding="UTF-8"?>
<svg width="144px" height="144px" viewBox="0 0 144 144" version="1.1" xmlns="http://www.w3.org/2000/svg" xmlns:xlink="http://www.w3.org/1999/xlink">
    <!-- Generator: Sketch 46.1 (44463) - http://www.bohemiancoding.com/sketch -->
    <title>ovalMakeplan</title>
    <desc>Created with Sketch.</desc>
    <defs></defs>
    <g id="icons" stroke="none" stroke-width="1" fill="none" fill-rule="evenodd">
        <g id="ovalMakeplan">
            <circle id="Oval" fill="#FFFFFF" cx="72" cy="72" r="72"></circle>
            <g id="makePlan" transform="translate(24.000000, 22.000000)" fill="#09294A">
                <path d="M0,13.3333333 L0,20 L0,26.6666667 L0,93.3333333 L7.13286713,100 L85.5944056,100 L92.7272727,93.3333333 L92.7272727,46.6666667 L85.5944056,53.3333333 L85.5944056,93.3333333 L7.13286713,93.3333333 L7.13286713,26.6666667 L21.3986014,26.6666667 L21.3986014,20 L7.13286713,20 L7.13286713,13.3333333 L21.3986014,13.3333333 L21.3986014,6.66666667 L7.13286713,6.66666667 L0,13.3333333 L0,13.3333333 Z M28.5314685,26.6666667 L42.7972028,26.6666667 L49.9300699,20 L57.0629371,13.3333333 L64.1958042,6.66666667 L64.1958042,0 L28.5314685,0 L28.5314685,6.66666667 L28.5314685,13.3333333 L28.5314685,20 L28.5314685,26.6666667 L28.5314685,26.6666667 Z M42.7972028,6.66666667 L46.3636364,6.66666667 L49.9300699,6.66666667 L49.9300699,10 L49.9300699,13.3333333 L46.3636364,13.3333333 L42.7972028,13.3333333 L42.7972028,10 L42.7972028,6.66666667 L42.7972028,6.66666667 Z" id="Shape"></path>
                <path d="M20.8333333,66.8859649 L35.2272727,80.1900585 L85.6060606,33.625731 L71.2121212,20.3216374 L20.8333333,66.8859649 L20.8333333,66.8859649 Z M92.8030303,26.9736842 L100,20.3216374 L100,13.6695906 L92.8030303,7.01754386 L85.6060606,7.01754386 L78.4090909,13.6695906 L92.8030303,26.9736842 L92.8030303,26.9736842 Z M20.8333333,73.5380117 L13.6363636,86.8421053 L28.030303,80.1900585 L20.8333333,73.5380117 L20.8333333,73.5380117 Z" id="Shape"></path>
            </g>
        </g>
    </g>
</svg>