<?xml version="1.0" encoding="UTF-8"?>
<svg width="144px" height="144px" viewBox="0 0 144 144" version="1.1" xmlns="http://www.w3.org/2000/svg" xmlns:xlink="http://www.w3.org/1999/xlink">
    <!-- Generator: Sketch 46.1 (44463) - http://www.bohemiancoding.com/sketch -->
    <title>2guyTalkingnew</title>
    <desc>Created with Sketch.</desc>
    <defs></defs>
    <g id="icons" stroke="none" stroke-width="1" fill="none" fill-rule="evenodd">
        <g id="2guyTalkingnew">
            <circle id="Oval" fill="#FFFFFF" cx="72" cy="72" r="72"></circle>
            <path d="M94.8426152,58.2264005 C93.4604509,58.2264005 91.5063566,57.879031 90.2195141,57.7053462 C84.9291612,63.740892 75.5876373,62.1777291 75.5876373,62.1777291 C81.4499202,59.6592999 82.4984586,55.186917 81.4499202,54.6224415 C76.826819,52.1474335 74.6820814,49.3684772 74.6820814,45.1566214 C74.6820814,37.7315975 83.546997,32 94.8426152,32 C106.185894,32 113.096716,37.7315975 113.096716,45.1566214 C113.096716,52.6250666 106.185894,58.2264005 94.8426152,58.2264005 L94.8426152,58.2264005 Z" id="Shape" stroke="#2C4F6C" stroke-width="3.5" fill="#BCD1E3"></path>
            <path d="M83.6245012,107.628957 C83.6245012,107.628957 83.3454062,95.4530358 82.7872161,94.8879087 C82.2848451,94.2714063 82.2290261,91.805397 76.2563928,88.4146341 C76.8704018,86.7192527 76.3122118,86.256876 76.4238498,86.3082512 C76.5913068,86.4110016 76.3680308,85.1779969 76.3680308,85.1779969 C76.3680308,85.1779969 72.2374246,83.5339907 72.2932436,80.5028542 C72.3490626,77.4203425 72.2932436,77.1634665 72.2932436,77.1634665 C72.2932436,77.1634665 72.5165196,71.5121951 77.8751439,71.5121951 L83.1779492,71.5121951 C88.0342024,71.5121951 88.4807544,77.1634665 88.4807544,77.1634665 L88.4807544,80.9138557 C88.4807544,80.9138557 87.0294604,83.3798651 84.0152342,84.9211209 C84.0152342,84.9211209 83.7919582,86.1541256 83.9594152,86.0513752 C84.1268722,86 84.1268722,91.548521 89.3738585,92.2677737 C94.6208447,92.9870265 96.1279578,95.9667878 97.1326999,96.8401661 C98.1374419,97.7135444 100.035288,107.731707 100.035288,107.731707 L83.6245012,107.628957 L83.6245012,107.628957 Z" id="Shape" stroke="#2C4F6C" stroke-width="3.5" fill="#BCD1E3"></path>
            <path d="M38.7199634,70.5708939 C38.2550343,70.8634082 37.3791732,72.6994291 37.7754214,74.3103324 C38.3647176,76.7060513 40.4608291,77.6410706 40.4608291,77.6410706 C40.4608291,77.6410706 43.7400825,82.0649976 43.7400825,84.6377545 C43.7400825,87.2105113 43.7400825,88.210037 42.8612927,90.3563798 C41.9825029,92.5027226 24.7323305,95.075611 24,107.728944 L49.1076427,107.728944 L74.4909466,107.731707 C73.7586161,95.078374 56.5084436,92.5054856 55.6296538,90.3591428 C54.750864,88.2128 54.750864,87.2132744 54.750864,84.6405175 C54.750864,82.0677607 58.0301175,77.6438336 58.0301175,77.6438336 C58.0301175,77.6438336 60.1262289,76.7088144 60.7155252,74.3130954 C61.1117734,72.7021921 60.2359122,70.8661712 59.7709832,70.5736569 C61.0137452,66.6992069 63.4958082,53.3421346 49.3833038,52.8607203 C49.3205719,52.8516188 49.2581638,52.8532435 49.1960745,52.8551158 C34.9951384,53.3393716 37.4772013,66.6964438 38.7199634,70.5708939 Z" id="Layer-3" stroke="#2C4F6C" stroke-width="3.5" fill="#BCD1E3" stroke-linecap="round" stroke-linejoin="round"></path>
        </g>
    </g>
</svg>