<?xml version="1.0" encoding="UTF-8"?>
<svg width="84px" height="91px" viewBox="0 0 84 91" version="1.1" xmlns="http://www.w3.org/2000/svg" xmlns:xlink="http://www.w3.org/1999/xlink">
    <!-- Generator: Sketch 46.1 (44463) - http://www.bohemiancoding.com/sketch -->
    <title>Fill 89</title>
    <desc>Created with Sketch.</desc>
    <defs></defs>
    <g id="icons" stroke="none" stroke-width="1" fill="none" fill-rule="evenodd">
        <path d="M78.4,50.9443364 L64.4,50.9443364 C62.8544,50.9443364 61.6,52.1987364 61.6,53.7443364 L61.6,64.9443364 C61.6,66.4927364 62.8544,67.7443364 64.4,67.7443364 L78.4,67.7443364 L78.4,81.7443364 C78.4,83.2927364 77.1456,84.5443364 75.6,84.5443364 L8.4,84.5443364 C6.8544,84.5443364 5.6,83.2927364 5.6,81.7443364 L5.6,28.5443364 L75.6,28.5443364 C77.1456,28.5443364 78.4,29.7959364 78.4,31.3443364 L78.4,50.9443364 L78.4,50.9443364 Z M78.4,59.3443364 L78.4,62.1443364 L67.2,62.1443364 L67.2,59.3443364 L67.2,56.5443364 L78.4,56.5443364 L78.4,59.3443364 L78.4,59.3443364 Z M72.8,6.14433637 L72.8,22.9443364 L18.2,22.9443364 L72.8,6.14433637 L72.8,6.14433637 Z M78.4,22.9443364 L78.4,3.34433637 C78.4,1.79593637 77.7392,0.939136372 76.3,0.370736372 C75.1912,-0.068863628 74.1132,0.194336372 72.8,0.544336372 L0,22.9443364 L0,84.5443364 C0,87.6355364 2.5088,90.1443364 5.6,90.1443364 L78.4,90.1443364 C81.4912,90.1443364 84,87.6355364 84,84.5443364 L84,28.5443364 C84,25.4531364 81.4912,22.9443364 78.4,22.9443364 L78.4,22.9443364 Z" id="Fill-89" fill="#2C4F6C"></path>
    </g>
</svg>