<?xml version="1.0" standalone="no"?>
<!DOCTYPE svg PUBLIC "-//W3C//DTD SVG 20010904//EN"
 "http://www.w3.org/TR/2001/REC-SVG-20010904/DTD/svg10.dtd">
<svg version="1.0" xmlns="http://www.w3.org/2000/svg"
 width="500.000000pt" height="500.000000pt" viewBox="0 0 500.000000 500.000000"
 preserveAspectRatio="xMidYMid meet">
<metadata>
Created by potrace 1.11, written by Peter Selinger 2001-2013
</metadata>
<g transform="translate(0.000000,500.000000) scale(0.100000,-0.100000)"
fill="#000000" stroke="none">
<path d="M0 2500 l0 -2500 2500 0 2500 0 0 2500 0 2500 -2500 0 -2500 0 0
-2500z m1567 98 c29 -27 31 -80 5 -105 -18 -17 -18 -19 6 -60 l24 -43 -25 0
c-17 0 -32 11 -51 41 -34 51 -60 50 -64 -4 -3 -32 -7 -37 -28 -37 l-24 0 0
115 0 115 67 0 c55 0 71 -4 90 -22z m373 2 c0 -18 -7 -20 -55 -20 -52 0 -55
-1 -55 -24 0 -23 5 -25 47 -28 36 -2 49 -7 51 -20 3 -15 -4 -18 -47 -18 -50 0
-51 -1 -51 -30 l0 -30 60 0 c53 0 60 -2 60 -20 0 -18 -7 -20 -85 -20 l-85 0 0
115 0 115 80 0 c73 0 80 -2 80 -20z m510 -53 l55 -72 3 73 c3 69 4 72 27 72
l25 0 0 -115 c0 -113 0 -115 -23 -115 -16 0 -38 20 -77 70 l-55 71 -3 -71 c-3
-67 -4 -70 -27 -70 l-25 0 0 115 c0 113 0 115 23 114 15 0 38 -21 77 -72z
m476 39 c29 -29 34 -41 34 -80 0 -36 -6 -52 -31 -81 -27 -30 -37 -35 -74 -35
-107 0 -153 123 -75 201 42 43 100 41 146 -5z m276 -51 c16 -44 31 -82 33 -84
3 -2 10 9 16 25 11 28 5 71 -16 127 -5 13 -2 17 13 17 15 0 24 -10 33 -37 l12
-37 14 37 c11 25 21 37 35 37 15 0 18 -4 13 -17 -21 -56 -27 -99 -16 -127 6
-16 13 -27 16 -25 2 2 17 40 33 84 25 70 32 80 54 83 l27 3 -47 -115 c-39 -98
-49 -116 -67 -116 -17 0 -27 11 -41 48 l-18 47 -20 -47 c-15 -36 -25 -48 -41
-48 -18 0 -29 19 -67 116 l-47 115 27 -3 c22 -3 29 -13 54 -83z m-1042 -120
c0 -18 -5 -25 -20 -25 -20 0 -28 28 -13 43 15 16 33 6 33 -18z"/>
<path d="M1460 2545 c0 -33 2 -35 35 -35 39 0 59 24 44 52 -6 12 -21 18 -44
18 -33 0 -35 -2 -35 -35z"/>
<path d="M2806 2558 c-35 -50 -9 -128 43 -128 37 0 65 33 65 75 0 66 -74 102
-108 53z"/>
</g>
</svg>
