<?xml version="1.0" standalone="no"?>
<!DOCTYPE svg PUBLIC "-//W3C//DTD SVG 20010904//EN"
 "http://www.w3.org/TR/2001/REC-SVG-20010904/DTD/svg10.dtd">
<svg version="1.0" xmlns="http://www.w3.org/2000/svg"
 width="310.000000pt" height="310.000000pt" viewBox="0 0 310.000000 310.000000"
 preserveAspectRatio="xMidYMid meet">
<metadata>
Created by potrace 1.11, written by Peter Selinger 2001-2013
</metadata>
<g transform="translate(0.000000,310.000000) scale(0.100000,-0.100000)"
fill="#000000" stroke="none">
<path d="M1360 3090 c-8 -5 -29 -10 -46 -10 -44 0 -214 -44 -309 -81 -496
-189 -862 -614 -969 -1124 -9 -44 -21 -102 -27 -130 -13 -61 -6 -354 10 -444
114 -637 590 -1136 1206 -1265 44 -9 103 -21 130 -27 61 -13 354 -6 445 10
634 113 1136 591 1264 1206 9 44 21 103 27 130 13 61 6 354 -10 444 -64 357
-245 684 -508 914 -201 175 -453 301 -704 351 -46 10 -100 21 -120 27 -48 12
-370 11 -389 -1z m-197 -1074 c172 -88 239 -285 153 -454 -24 -46 -95 -122
-116 -122 -23 0 -5 -43 66 -160 107 -173 126 -209 119 -220 -9 -15 -178 -13
-196 3 -15 12 -64 87 -134 207 -69 117 -58 109 -161 110 -78 0 -93 -3 -99 -17
-3 -10 -5 -79 -4 -154 1 -75 -1 -141 -5 -148 -8 -12 -142 -16 -170 -5 -14 5
-16 58 -16 494 0 381 3 490 13 494 6 3 120 4 252 3 l240 -2 58 -29z m1312 -56
l0 -85 -238 -3 -238 -2 3 -113 3 -112 205 -5 205 -5 3 -72 c2 -40 2 -74 0 -75
-2 -1 -95 -4 -208 -7 l-205 -6 -3 -122 -3 -123 235 0 c129 0 241 -3 250 -6 13
-5 16 -22 16 -85 0 -73 -2 -79 -22 -84 -13 -3 -167 -4 -343 -3 l-320 3 -3 485
c-1 267 0 491 3 498 3 10 75 12 332 10 l328 -3 0 -85z"/>
<path d="M796 1854 c-12 -32 -7 -269 7 -288 12 -16 27 -18 133 -14 139 4 173
18 204 78 22 43 26 119 9 153 -6 12 -25 37 -42 55 l-31 32 -137 0 c-116 0
-138 -2 -143 -16z"/>
</g>
</svg>
